<?xml version="1.0" encoding="UTF-8" standalone="no"?>
<!-- Created with Inkscape (http://www.inkscape.org/) -->

<svg
   xmlns:dc="http://purl.org/dc/elements/1.1/"
   xmlns:cc="http://creativecommons.org/ns#"
   xmlns:rdf="http://www.w3.org/1999/02/22-rdf-syntax-ns#"
   xmlns:svg="http://www.w3.org/2000/svg"
   xmlns="http://www.w3.org/2000/svg"
   xmlns:sodipodi="http://sodipodi.sourceforge.net/DTD/sodipodi-0.dtd"
   xmlns:inkscape="http://www.inkscape.org/namespaces/inkscape"
   width="32"
   height="32"
   viewBox="0 0 32 32"
   id="svg2"
   version="1.1"
   inkscape:version="0.91 r13725"
   sodipodi:docname="course.svg"
   inkscape:export-filename="/home/sign/git/santakani/resources/assets/img/icon/stroke/course.png"
   inkscape:export-xdpi="1440"
   inkscape:export-ydpi="1440">
  <defs
     id="defs4" />
  <sodipodi:namedview
     id="base"
     pagecolor="#ffffff"
     bordercolor="#666666"
     borderopacity="1.0"
     inkscape:pageopacity="0.0"
     inkscape:pageshadow="2"
     inkscape:zoom="11.313708"
     inkscape:cx="-1.6316799"
     inkscape:cy="25.040001"
     inkscape:document-units="px"
     inkscape:current-layer="layer1"
     showgrid="true"
     units="px"
     showguides="true"
     inkscape:guide-bbox="true"
     inkscape:object-paths="true"
     inkscape:snap-intersection-paths="true"
     inkscape:object-nodes="true"
     inkscape:snap-smooth-nodes="true"
     inkscape:snap-midpoints="true"
     inkscape:window-width="1920"
     inkscape:window-height="1015"
     inkscape:window-x="0"
     inkscape:window-y="0"
     inkscape:window-maximized="1"
     inkscape:snap-global="false">
    <inkscape:grid
       type="xygrid"
       id="grid4136"
       units="px"
       spacingx="0.50000002"
       spacingy="0.50000002"
       empspacing="2"
       dotted="false"
       color="#7dd9d5"
       opacity="0.1254902"
       empcolor="#0dc9c2"
       empopacity="0.42745098" />
    <sodipodi:guide
       position="4.0000002,16.000001"
       orientation="1,0"
       id="guide4138" />
    <sodipodi:guide
       position="16.000001,28.000001"
       orientation="0,1"
       id="guide4140" />
    <sodipodi:guide
       position="16.000001,4.0000002"
       orientation="0,1"
       id="guide4142" />
    <sodipodi:guide
       position="28.000001,16.000001"
       orientation="1,0"
       id="guide4144" />
    <sodipodi:guide
       position="16.000001,16.000001"
       orientation="1,0"
       id="guide4150" />
    <sodipodi:guide
       position="16.000001,16.000001"
       orientation="0,1"
       id="guide4152" />
    <sodipodi:guide
       position="2.0000001,16.000001"
       orientation="1,0"
       id="guide4249"
       inkscape:label=""
       inkscape:color="rgb(255,0,175)" />
    <sodipodi:guide
       position="16.000001,30.000001"
       orientation="0,1"
       id="guide4251"
       inkscape:label=""
       inkscape:color="rgb(255,0,175)" />
    <sodipodi:guide
       position="30.000001,16.000001"
       orientation="1,0"
       id="guide4253"
       inkscape:label=""
       inkscape:color="rgb(255,0,175)" />
    <sodipodi:guide
       position="16.000001,2.0000001"
       orientation="0,1"
       id="guide4255"
       inkscape:label=""
       inkscape:color="rgb(255,0,175)" />
  </sodipodi:namedview>
  <metadata
     id="metadata7">
    <rdf:RDF>
      <cc:Work
         rdf:about="">
        <dc:format>image/svg+xml</dc:format>
        <dc:type
           rdf:resource="http://purl.org/dc/dcmitype/StillImage" />
        <dc:title></dc:title>
      </cc:Work>
    </rdf:RDF>
  </metadata>
  <g
     inkscape:label="Layer 1"
     inkscape:groupmode="layer"
     id="layer1"
     transform="translate(0,-1020.3622)">
    <path
       style="color:#000000;font-style:normal;font-variant:normal;font-weight:normal;font-stretch:normal;font-size:medium;line-height:normal;font-family:sans-serif;text-indent:0;text-align:start;text-decoration:none;text-decoration-line:none;text-decoration-style:solid;text-decoration-color:#000000;letter-spacing:normal;word-spacing:normal;text-transform:none;direction:ltr;block-progression:tb;writing-mode:lr-tb;baseline-shift:baseline;text-anchor:start;white-space:normal;clip-rule:nonzero;display:inline;overflow:visible;visibility:visible;opacity:1;isolation:auto;mix-blend-mode:normal;color-interpolation:sRGB;color-interpolation-filters:linearRGB;solid-color:#000000;solid-opacity:1;fill:#666666;fill-opacity:1;fill-rule:nonzero;stroke:none;stroke-width:1;stroke-linecap:butt;stroke-linejoin:round;stroke-miterlimit:4;stroke-dasharray:none;stroke-dashoffset:0;stroke-opacity:1;color-rendering:auto;image-rendering:auto;shape-rendering:auto;text-rendering:auto;enable-background:accumulate"
       d="M 4.5 4 A 0.50005 0.50005 0 0 0 4 4.5 L 4 22.5 A 0.50005 0.50005 0 0 0 4.5 23 L 12.958984 23 C 12.941993 23.160123 12.926265 23.31985 12.884766 23.527344 C 12.769823 24.102044 12.528633 24.764384 12.146484 25.146484 C 11.764335 25.528684 10.781605 26.050116 9.9277344 26.416016 C 9.0738642 26.782016 8.3417969 27.027344 8.3417969 27.027344 A 0.50005 0.50005 0 0 0 8.5 28 L 23.386719 28 A 1.50015 1.50015 0 0 1 23 27 L 23 26.785156 C 22.730676 26.683579 22.428002 26.568497 22.072266 26.416016 C 21.218395 26.050116 20.235664 25.528684 19.853516 25.146484 C 19.471367 24.764384 19.230177 24.102044 19.115234 23.527344 C 19.073735 23.31985 19.058007 23.160123 19.041016 23 L 23 23 A 1.50015 1.50015 0 0 1 23.384766 22 L 18.535156 22 L 13.5 22 L 5 22 L 5 5 L 27 5 L 27 22 L 25.703125 22 L 27.203125 23 L 27.5 23 A 0.50005 0.50005 0 0 0 28 22.5 L 28 4.5 A 0.50005 0.50005 0 0 0 27.5 4 L 4.5 4 z M 13.945312 23 L 18.054688 23 C 18.067908 23.2232 18.054845 23.325009 18.134766 23.724609 C 18.269823 24.399909 18.528633 25.235716 19.146484 25.853516 C 19.624212 26.331316 20.388744 26.668 21.103516 27 L 10.896484 27 C 11.611256 26.668 12.375788 26.331316 12.853516 25.853516 C 13.471367 25.235716 13.730177 24.399909 13.865234 23.724609 C 13.945154 23.325009 13.932094 23.2232 13.945312 23 z "
       transform="translate(0,1020.3622)"
       id="rect4145" />
    <path
       style="color:#000000;font-style:normal;font-variant:normal;font-weight:normal;font-stretch:normal;font-size:medium;line-height:normal;font-family:sans-serif;text-indent:0;text-align:start;text-decoration:none;text-decoration-line:none;text-decoration-style:solid;text-decoration-color:#000000;letter-spacing:normal;word-spacing:normal;text-transform:none;direction:ltr;block-progression:tb;writing-mode:lr-tb;baseline-shift:baseline;text-anchor:start;white-space:normal;clip-rule:nonzero;display:inline;overflow:visible;visibility:visible;opacity:1;isolation:auto;mix-blend-mode:normal;color-interpolation:sRGB;color-interpolation-filters:linearRGB;solid-color:#000000;solid-opacity:1;fill:#666666;fill-opacity:1;fill-rule:nonzero;stroke:none;stroke-width:1;stroke-linecap:butt;stroke-linejoin:round;stroke-miterlimit:4;stroke-dasharray:none;stroke-dashoffset:0;stroke-opacity:1;color-rendering:auto;image-rendering:auto;shape-rendering:auto;text-rendering:auto;enable-background:accumulate"
       d="M 24.494141,1042.8613 A 0.50005,0.50005 0 0 0 24,1043.3613 l 0,4 a 0.50005,0.50005 0 0 0 0.777344,0.416 l 3,-2 a 0.50005,0.50005 0 0 0 0,-0.832 l -3,-2 a 0.50005,0.50005 0 0 0 -0.283203,-0.084 z M 25,1044.2949 l 1.597656,1.0664 -1.597656,1.0664 0,-2.1328 z"
       id="path4170"
       inkscape:connector-curvature="0" />
    <path
       style="color:#000000;font-style:normal;font-variant:normal;font-weight:normal;font-stretch:normal;font-size:medium;line-height:normal;font-family:sans-serif;text-indent:0;text-align:start;text-decoration:none;text-decoration-line:none;text-decoration-style:solid;text-decoration-color:#000000;letter-spacing:normal;word-spacing:normal;text-transform:none;direction:ltr;block-progression:tb;writing-mode:lr-tb;baseline-shift:baseline;text-anchor:start;white-space:normal;clip-rule:nonzero;display:inline;overflow:visible;visibility:visible;opacity:1;isolation:auto;mix-blend-mode:normal;color-interpolation:sRGB;color-interpolation-filters:linearRGB;solid-color:#000000;solid-opacity:1;fill:#666666;fill-opacity:1;fill-rule:nonzero;stroke:none;stroke-width:1;stroke-linecap:butt;stroke-linejoin:round;stroke-miterlimit:4;stroke-dasharray:none;stroke-dashoffset:0;stroke-opacity:1;color-rendering:auto;image-rendering:auto;shape-rendering:auto;text-rendering:auto;enable-background:accumulate"
       d="m 20.562447,1026.3871 a 0.50005,0.50005 0 0 0 -0.308593,0.1133 l -1.470704,1.2089 a 0.50005,0.50005 0 0 0 -0.0039,0 0.50005,0.50005 0 0 0 -0.136718,0.1133 l -1.404297,1.1543 a 0.50005,0.50005 0 0 0 -0.140625,0.1152 l -1.404297,1.1543 a 0.50005,0.50005 0 0 0 -0.140625,0.1152 l -1.404297,1.1543 a 0.50005,0.50005 0 0 0 -0.144531,0.1172 l -1.40625,1.1543 a 0.50005,0.50005 0 0 0 -0.132813,0.1094 l -1.417969,1.1641 a 0.50005,0.50005 0 0 0 -0.123046,0.1015 l -1.4218768,1.166 a 0.50005,0.50005 0 0 0 -0.126953,0.1055 l -1.484375,1.2188 a 0.50005,0.50005 0 0 0 -0.068359,0.705 l 3.1738288,3.8633 a 0.50005,0.50005 0 0 0 0.703125,0.068 l 12.363281,-10.1563 a 0.50005,0.50005 0 0 0 0.07031,-0.7031 l -3.173828,-3.8633 a 0.50005,0.50005 0 0 0 -0.396485,-0.1816 z m -0.06055,1.2031 2.539063,3.0898 -11.589844,9.5215 -2.5390628,-3.0918 0.771484,-0.6328 0.9511728,1.1582 a 0.50029387,0.50029387 0 1 0 0.773437,-0.6347 l -0.953124,-1.1582 0.773437,-0.6348 1.587891,1.9316 a 0.50005,0.50005 0 1 0 0.771484,-0.6347 l -1.585938,-1.9317 0.773438,-0.6347 0.951172,1.1582 a 0.50029387,0.50029387 0 0 0 0.773437,-0.6348 l -0.951171,-1.1582 0.771484,-0.6348 1.585937,1.9317 a 0.50029426,0.50029426 0 1 0 0.773438,-0.6348 l -1.585938,-1.9316 0.773438,-0.6348 0.951172,1.1582 a 0.50005,0.50005 0 1 0 0.771484,-0.6348 l -0.951172,-1.1582 0.773438,-0.6347 1.585937,1.9316 a 0.50029426,0.50029426 0 1 0 0.773438,-0.6348 l -1.587891,-1.9316 0.773438,-0.6348 0.951171,1.1602 a 0.50029426,0.50029426 0 1 0 0.773438,-0.6348 l -0.953125,-1.1601 0.773437,-0.6348 z"
       id="rect4177"
       inkscape:connector-curvature="0" />
    <path
       style="color:#000000;font-style:normal;font-variant:normal;font-weight:normal;font-stretch:normal;font-size:medium;line-height:normal;font-family:sans-serif;text-indent:0;text-align:start;text-decoration:none;text-decoration-line:none;text-decoration-style:solid;text-decoration-color:#000000;letter-spacing:normal;word-spacing:normal;text-transform:none;direction:ltr;block-progression:tb;writing-mode:lr-tb;baseline-shift:baseline;text-anchor:start;white-space:normal;clip-rule:nonzero;display:inline;overflow:visible;visibility:visible;opacity:1;isolation:auto;mix-blend-mode:normal;color-interpolation:sRGB;color-interpolation-filters:linearRGB;solid-color:#000000;solid-opacity:1;fill:#666666;fill-opacity:1;fill-rule:nonzero;stroke:none;stroke-width:1;stroke-linecap:round;stroke-linejoin:round;stroke-miterlimit:4;stroke-dasharray:none;stroke-dashoffset:0;stroke-opacity:1;color-rendering:auto;image-rendering:auto;shape-rendering:auto;text-rendering:auto;enable-background:accumulate"
       d="M 10.201172 6.0195312 A 0.50005 0.50005 0 0 0 9.8632812 6.1835938 L 7.8457031 8.4042969 A 0.50005 0.50005 0 0 0 7.8808594 9.1113281 L 9.3359375 10.431641 L 9.3613281 10.455078 L 12.037109 12.886719 L 12.464844 12.535156 A 0.50005 0.50005 0 0 1 12.597656 12.425781 L 12.818359 12.244141 L 10.402344 10.050781 L 11.748047 8.5703125 L 14.380859 10.962891 L 15.152344 10.330078 L 12.050781 7.5117188 L 10.570312 6.1679688 A 0.50005 0.50005 0 0 0 10.251953 6.0371094 L 10.251953 6.0195312 A 0.50005 0.50005 0 0 0 10.201172 6.0195312 z M 10.267578 7.2265625 L 11.007812 7.8984375 L 9.6621094 9.3789062 L 8.921875 8.7070312 L 10.267578 7.2265625 z M 19.636719 14.404297 L 18.867188 15.039062 L 21.369141 17.3125 L 20.025391 18.792969 L 17.304688 16.322266 L 16.525391 16.962891 L 19.697266 19.845703 L 19.722656 19.871094 A 0.50005 0.50005 0 0 0 19.732422 19.880859 A 0.50005 0.50005 0 0 0 19.761719 19.904297 A 0.50005 0.50005 0 0 0 19.771484 19.914062 A 0.50005 0.50005 0 0 0 19.802734 19.933594 A 0.50005 0.50005 0 0 0 19.847656 19.957031 A 0.50005 0.50005 0 0 0 19.859375 19.966797 A 0.50005 0.50005 0 0 0 19.892578 19.978516 A 0.50005 0.50005 0 0 0 19.923828 19.990234 L 19.941406 19.990234 L 23.154297 20.892578 A 0.50005 0.50005 0 0 0 23.753906 20.230469 L 22.542969 17.105469 A 0.50005 0.50005 0 0 0 22.498047 17.017578 A 0.50005 0.50005 0 0 0 22.470703 16.978516 A 0.50005 0.50005 0 0 0 22.46875 16.978516 A 0.50005 0.50005 0 0 0 22.4375 16.943359 A 0.50005 0.50005 0 0 0 22.435547 16.943359 A 0.50005 0.50005 0 0 0 22.412109 16.919922 L 22.400391 16.908203 A 0.50005 0.50005 0 0 0 22.394531 16.910156 L 19.636719 14.404297 z M 21.902344 18.212891 L 22.460938 19.65625 L 20.972656 19.238281 L 21.902344 18.212891 z "
       transform="translate(0,1020.3622)"
       id="rect4203" />
  </g>
</svg>
