<?xml version="1.0" encoding="UTF-8" standalone="no"?>
<!-- Created with Inkscape (http://www.inkscape.org/) -->

<svg
   xmlns:dc="http://purl.org/dc/elements/1.1/"
   xmlns:cc="http://creativecommons.org/ns#"
   xmlns:rdf="http://www.w3.org/1999/02/22-rdf-syntax-ns#"
   xmlns:svg="http://www.w3.org/2000/svg"
   xmlns="http://www.w3.org/2000/svg"
   xmlns:sodipodi="http://sodipodi.sourceforge.net/DTD/sodipodi-0.dtd"
   xmlns:inkscape="http://www.inkscape.org/namespaces/inkscape"
   id="svg2"
   version="1.1"
   inkscape:version="0.91 r13725"
   xml:space="preserve"
   width="512"
   height="512"
   viewBox="0 0 512 512"
   sodipodi:docname="app-icon.svg"
   inkscape:export-filename="/home/sign/git/santakani/resources/assets/img/logo/app-icon-192.png"
   inkscape:export-xdpi="33.75"
   inkscape:export-ydpi="33.75"><metadata
     id="metadata8"><rdf:RDF><cc:Work
         rdf:about=""><dc:format>image/svg+xml</dc:format><dc:type
           rdf:resource="http://purl.org/dc/dcmitype/StillImage" /><dc:title></dc:title></cc:Work></rdf:RDF></metadata><defs
     id="defs6"><clipPath
       clipPathUnits="userSpaceOnUse"
       id="clipPath16"><path
         d="M 0,348 358,348 358,0 0,0 0,348 Z"
         id="path18"
         inkscape:connector-curvature="0" /></clipPath></defs><sodipodi:namedview
     pagecolor="#ffffff"
     bordercolor="#666666"
     borderopacity="1"
     objecttolerance="10"
     gridtolerance="10"
     guidetolerance="10"
     inkscape:pageopacity="0"
     inkscape:pageshadow="2"
     inkscape:window-width="1920"
     inkscape:window-height="1017"
     id="namedview4"
     showgrid="true"
     inkscape:zoom="1"
     inkscape:cx="274.56881"
     inkscape:cy="200.99753"
     inkscape:window-x="0"
     inkscape:window-y="0"
     inkscape:window-maximized="1"
     inkscape:current-layer="g10"
     showguides="true"
     inkscape:guide-bbox="true"><inkscape:grid
       type="xygrid"
       id="grid4250"
       units="px"
       spacingx="4"
       spacingy="4"
       empspacing="4" /><sodipodi:guide
       position="256,480"
       orientation="0,1"
       id="guide4252" /><sodipodi:guide
       position="32,256"
       orientation="1,0"
       id="guide4254" /><sodipodi:guide
       position="480,256"
       orientation="1,0"
       id="guide4256" /><sodipodi:guide
       position="256,32"
       orientation="0,1"
       id="guide4258" /><sodipodi:guide
       position="256,448"
       orientation="0,1"
       id="guide4151" /><sodipodi:guide
       position="256,64"
       orientation="0,1"
       id="guide4153" /><sodipodi:guide
       position="64,256"
       orientation="1,0"
       id="guide4155" /><sodipodi:guide
       position="448,256"
       orientation="1,0"
       id="guide4157" /></sodipodi:namedview><g
     id="g10"
     inkscape:groupmode="layer"
     inkscape:label="LOGO 9.3.16"
     transform="matrix(1.25,0,0,-1.25,0,512)"><rect
       style="opacity:1;fill:#ffffff;fill-opacity:1;stroke:none;stroke-width:0.80000001;stroke-linecap:round;stroke-linejoin:round;stroke-miterlimit:4;stroke-dasharray:none;stroke-dashoffset:0;stroke-opacity:1"
       id="rect4197"
       width="358.39999"
       height="358.39999"
       x="25.6"
       y="-384"
       transform="scale(1,-1)"
       rx="32"
       ry="32" /><path
       inkscape:connector-curvature="0"
       id="path34"
       style="fill:#61704b;fill-opacity:1;fill-rule:nonzero;stroke:none"
       d="m 157.30934,224.97692 c 0,0 -69.823654,84.86287 -34.53256,119.13327 26.16059,25.40071 62.47506,10.27766 67.65448,-17.23501 6.24804,-33.17116 -33.12192,-101.89826 -33.12192,-101.89826" /><path
       inkscape:connector-curvature="0"
       id="path38"
       style="fill:#61704b;fill-opacity:1;fill-rule:nonzero;stroke:none"
       d="m 252.2903,226.27657 c 0,0 69.82633,84.86287 34.53124,119.13326 -26.15793,25.40071 -62.47241,10.27766 -67.65049,-17.235 -6.24938,-33.17116 33.11925,-101.89826 33.11925,-101.89826" /><path
       inkscape:connector-curvature="0"
       id="path42"
       style="fill:#d81f2d;fill-opacity:1;fill-rule:nonzero;stroke:none"
       d="m 235.12594,135.66098 c -5.21136,0 -9.43394,4.22126 -9.43394,9.43261 0,5.21136 4.22258,9.43527 9.43394,9.43527 5.2087,0 9.43261,-4.22391 9.43261,-9.43527 0,-5.21135 -4.22391,-9.43261 -9.43261,-9.43261 m -64.21174,0 c -5.20869,0 -9.43261,4.22126 -9.43261,9.43261 0,5.21136 4.22392,9.43527 9.43261,9.43527 5.21136,0 9.43527,-4.22391 9.43527,-9.43527 0,-5.21135 -4.22391,-9.43261 -9.43527,-9.43261 M 204.8,217.80905 c -46.01059,0 -83.30718,-37.29393 -83.30718,-83.30452 0,-46.005265 37.29659,-83.304529 83.30718,-83.304529 46.00925,0 83.30718,37.299264 83.30718,83.304529 0,46.01059 -37.29793,83.30452 -83.30718,83.30452" /></g></svg>