<?xml version="1.0" encoding="UTF-8" standalone="no"?>
<!-- Created with Inkscape (http://www.inkscape.org/) -->

<svg
   xmlns:dc="http://purl.org/dc/elements/1.1/"
   xmlns:cc="http://creativecommons.org/ns#"
   xmlns:rdf="http://www.w3.org/1999/02/22-rdf-syntax-ns#"
   xmlns:svg="http://www.w3.org/2000/svg"
   xmlns="http://www.w3.org/2000/svg"
   xmlns:sodipodi="http://sodipodi.sourceforge.net/DTD/sodipodi-0.dtd"
   xmlns:inkscape="http://www.inkscape.org/namespaces/inkscape"
   id="svg2"
   version="1.1"
   inkscape:version="0.91 r13725"
   xml:space="preserve"
   width="16"
   height="16"
   viewBox="0 0 16 16"
   sodipodi:docname="app-icon-16.svg"
   inkscape:export-filename="/home/sign/git/santakani/resources/assets/img/logo/app-icon-16.png"
   inkscape:export-xdpi="90"
   inkscape:export-ydpi="90"><metadata
     id="metadata8"><rdf:RDF><cc:Work
         rdf:about=""><dc:format>image/svg+xml</dc:format><dc:type
           rdf:resource="http://purl.org/dc/dcmitype/StillImage" /><dc:title></dc:title></cc:Work></rdf:RDF></metadata><defs
     id="defs6"><clipPath
       clipPathUnits="userSpaceOnUse"
       id="clipPath16"><path
         d="M 0,348 358,348 358,0 0,0 0,348 Z"
         id="path18"
         inkscape:connector-curvature="0" /></clipPath></defs><sodipodi:namedview
     pagecolor="#ffffff"
     bordercolor="#666666"
     borderopacity="1"
     objecttolerance="10"
     gridtolerance="10"
     guidetolerance="10"
     inkscape:pageopacity="1"
     inkscape:pageshadow="2"
     inkscape:window-width="1920"
     inkscape:window-height="1017"
     id="namedview4"
     showgrid="true"
     inkscape:zoom="45.254834"
     inkscape:cx="3.7795627"
     inkscape:cy="8.2816701"
     inkscape:window-x="0"
     inkscape:window-y="0"
     inkscape:window-maximized="1"
     inkscape:current-layer="g10"
     showguides="true"
     inkscape:guide-bbox="true"><inkscape:grid
       type="xygrid"
       id="grid4250"
       units="px"
       spacingx="1"
       spacingy="1"
       empspacing="4" /></sodipodi:namedview><g
     id="g10"
     inkscape:groupmode="layer"
     inkscape:label="LOGO 9.3.16"
     transform="matrix(1.25,0,0,-1.25,0,16)"><path
       inkscape:connector-curvature="0"
       id="path34"
       style="fill:#61704b;fill-opacity:1;fill-rule:nonzero;stroke:none"
       d="m 4.6685114,7.1828371 c 0,0 -2.54574,3.0940629 -1.259042,4.3435469 0.9538034,0.926099 2.2778131,0.374719 2.4666527,-0.628381 C 6.1039228,9.6885969 4.6685114,7.1828371 4.6685114,7.1828371" /><path
       inkscape:connector-curvature="0"
       id="path38"
       style="fill:#61704b;fill-opacity:1;fill-rule:nonzero;stroke:none"
       d="m 8.1314753,7.1828374 c 0,0 2.5458377,3.0940636 1.2589938,4.3435466 C 8.4367626,12.452483 7.1127525,11.901103 6.923962,10.898004 6.6961124,9.6885972 8.1314753,7.1828374 8.1314753,7.1828374" /><path
       inkscape:connector-curvature="0"
       id="path42"
       style="fill:#d81f2d;fill-opacity:1;fill-rule:nonzero;stroke:none"
       d="m 7.5056702,3.87941 c -0.1900039,0 -0.3439572,0.1539055 -0.3439572,0.3439091 0,0.1900039 0.1539533,0.3440056 0.3439572,0.3440056 0.1899071,0 0.343909,-0.1540017 0.343909,-0.3440056 0,-0.1900036 -0.1540019,-0.3439091 -0.343909,-0.3439091 m -2.3411317,0 c -0.1899065,0 -0.3439088,0.1539055 -0.3439088,0.3439091 0,0.1900039 0.1540023,0.3440056 0.3439088,0.3440056 0.1900038,0 0.3440058,-0.1540017 0.3440058,-0.3440056 0,-0.1900036 -0.154002,-0.3439091 -0.3440058,-0.3439091 m 1.2354613,2.9950827 c -1.6775259,0 -3.0373431,-1.3597202 -3.0373431,-3.0372462 0,-1.6773318 1.3598172,-3.03724658 3.0373431,-3.03724658 1.677477,0 3.0373432,1.35991478 3.0373432,3.03724658 0,1.677526 -1.3598662,3.0372462 -3.0373432,3.0372462" /></g></svg>