<?xml version="1.0" encoding="UTF-8" standalone="no"?>
<!-- Created with Inkscape (http://www.inkscape.org/) -->

<svg
   xmlns:dc="http://purl.org/dc/elements/1.1/"
   xmlns:cc="http://creativecommons.org/ns#"
   xmlns:rdf="http://www.w3.org/1999/02/22-rdf-syntax-ns#"
   xmlns:svg="http://www.w3.org/2000/svg"
   xmlns="http://www.w3.org/2000/svg"
   xmlns:sodipodi="http://sodipodi.sourceforge.net/DTD/sodipodi-0.dtd"
   xmlns:inkscape="http://www.inkscape.org/namespaces/inkscape"
   id="svg2"
   version="1.1"
   inkscape:version="0.91 r13725"
   xml:space="preserve"
   width="512"
   height="512"
   viewBox="0 0 512 512"
   sodipodi:docname="Logo.svg"><metadata
     id="metadata8"><rdf:RDF><cc:Work
         rdf:about=""><dc:format>image/svg+xml</dc:format><dc:type
           rdf:resource="http://purl.org/dc/dcmitype/StillImage" /><dc:title></dc:title></cc:Work></rdf:RDF></metadata><defs
     id="defs6"><clipPath
       clipPathUnits="userSpaceOnUse"
       id="clipPath16"><path
         d="M 0,348 358,348 358,0 0,0 0,348 Z"
         id="path18"
         inkscape:connector-curvature="0" /></clipPath></defs><sodipodi:namedview
     pagecolor="#ffffff"
     bordercolor="#666666"
     borderopacity="1"
     objecttolerance="10"
     gridtolerance="10"
     guidetolerance="10"
     inkscape:pageopacity="0"
     inkscape:pageshadow="2"
     inkscape:window-width="1920"
     inkscape:window-height="1017"
     id="namedview4"
     showgrid="false"
     inkscape:zoom="1.515625"
     inkscape:cx="256.65979"
     inkscape:cy="256"
     inkscape:window-x="0"
     inkscape:window-y="0"
     inkscape:window-maximized="1"
     inkscape:current-layer="g10" /><g
     id="g10"
     inkscape:groupmode="layer"
     inkscape:label="LOGO 9.3.16"
     transform="matrix(1.25,0,0,-1.25,0,512)"><path
       inkscape:connector-curvature="0"
       id="path22"
       style="fill:#bdbcbc;fill-opacity:1;fill-rule:nonzero;stroke:none"
       d="m 155.00933,227.48708 c 0,0 -81.11709,98.58878 -40.11638,138.40214 30.39031,29.50907 72.57837,11.93999 78.59552,-20.02263 7.26016,-38.53635 -38.47914,-118.37951 -38.47914,-118.37951" /><path
       inkscape:connector-curvature="0"
       id="path26"
       style="fill:#bdbcbc;fill-opacity:1;fill-rule:nonzero;stroke:none"
       d="m 265.35413,228.99677 c 0,0 81.11709,98.58878 40.11793,138.40215 -30.39341,29.50907 -72.57992,11.93999 -78.59707,-20.02264 -7.26016,-38.53634 38.47914,-118.37951 38.47914,-118.37951" /><path
       inkscape:connector-curvature="0"
       id="path30"
       style="fill:#bdbcbc;fill-opacity:1;fill-rule:nonzero;stroke:none"
       d="m 246.5527,123.72188 c -6.05116,0 -10.95826,4.91019 -10.95826,10.95826 0,6.05734 4.9071,10.96444 10.95826,10.96444 6.05425,0 10.95826,-4.9071 10.95826,-10.96444 0,-6.04807 -4.90401,-10.95826 -10.95826,-10.95826 m -74.59594,0 c -6.05271,0 -10.95826,4.91019 -10.95826,10.95826 0,6.05734 4.90555,10.96444 10.95826,10.96444 6.05425,0 10.9629,-4.9071 10.9629,-10.96444 0,-6.04807 -4.90865,-10.95826 -10.9629,-10.95826 m 39.3681,95.43797 c -53.45398,0 -96.78301,-43.32594 -96.78301,-96.77529 0,-53.45243 43.32903,-96.78456 96.78301,-96.78456 53.44935,0 96.77838,43.33213 96.77838,96.78456 0,53.44935 -43.32903,96.77529 -96.77838,96.77529" /><path
       inkscape:connector-curvature="0"
       id="path34"
       style="fill:#61704b;fill-opacity:1;fill-rule:nonzero;stroke:none"
       d="m 144.24587,228.99677 c 0,0 -81.11709,98.58878 -40.11793,138.40215 30.39186,29.50907 72.57992,11.93999 78.59707,-20.02264 7.25861,-38.53634 -38.47914,-118.37951 -38.47914,-118.37951" /><path
       inkscape:connector-curvature="0"
       id="path38"
       style="fill:#61704b;fill-opacity:1;fill-rule:nonzero;stroke:none"
       d="m 254.58927,230.50663 c 0,0 81.12019,98.58878 40.11639,138.40214 -30.38877,29.50907 -72.57683,11.93999 -78.59243,-20.02263 -7.26016,-38.53634 38.47604,-118.37951 38.47604,-118.37951" /><path
       inkscape:connector-curvature="0"
       id="path42"
       style="fill:#d81f2d;fill-opacity:1;fill-rule:nonzero;stroke:none"
       d="m 235.79079,125.23467 c -6.05426,0 -10.95981,4.90401 -10.95981,10.95826 0,6.05425 4.90555,10.96135 10.95981,10.96135 6.05116,0 10.95826,-4.9071 10.95826,-10.96135 0,-6.05425 -4.9071,-10.95826 -10.95826,-10.95826 m -74.59749,0 c -6.05116,0 -10.95826,4.90401 -10.95826,10.95826 0,6.05425 4.9071,10.96135 10.95826,10.96135 6.05425,0 10.96135,-4.9071 10.96135,-10.96135 0,-6.05425 -4.9071,-10.95826 -10.96135,-10.95826 m 39.36656,95.43488 c -53.45244,0 -96.78147,-43.32594 -96.78147,-96.77838 0,-53.44625 43.32903,-96.77838 96.78147,-96.77838 53.45089,0 96.78147,43.33213 96.78147,96.77838 0,53.45244 -43.33058,96.77838 -96.78147,96.77838" /></g></svg>