<?xml version="1.0" encoding="UTF-8" standalone="no"?>
<!-- Created with Inkscape (http://www.inkscape.org/) -->

<svg
   xmlns:dc="http://purl.org/dc/elements/1.1/"
   xmlns:cc="http://creativecommons.org/ns#"
   xmlns:rdf="http://www.w3.org/1999/02/22-rdf-syntax-ns#"
   xmlns:svg="http://www.w3.org/2000/svg"
   xmlns="http://www.w3.org/2000/svg"
   xmlns:sodipodi="http://sodipodi.sourceforge.net/DTD/sodipodi-0.dtd"
   xmlns:inkscape="http://www.inkscape.org/namespaces/inkscape"
   id="svg2"
   version="1.1"
   inkscape:version="0.91 r13725"
   xml:space="preserve"
   width="512"
   height="512"
   viewBox="0 0 512 512"
   sodipodi:docname="Logo.svg"><metadata
     id="metadata8"><rdf:RDF><cc:Work
         rdf:about=""><dc:format>image/svg+xml</dc:format><dc:type
           rdf:resource="http://purl.org/dc/dcmitype/StillImage" /><dc:title></dc:title></cc:Work></rdf:RDF></metadata><defs
     id="defs6"><clipPath
       clipPathUnits="userSpaceOnUse"
       id="clipPath20"><path
         d="M 0,348 358,348 358,0 0,0 0,348 Z"
         id="path22"
         inkscape:connector-curvature="0" /></clipPath></defs><sodipodi:namedview
     pagecolor="#ffffff"
     bordercolor="#666666"
     borderopacity="1"
     objecttolerance="10"
     gridtolerance="10"
     guidetolerance="10"
     inkscape:pageopacity="0"
     inkscape:pageshadow="2"
     inkscape:window-width="1920"
     inkscape:window-height="1017"
     id="namedview4"
     showgrid="false"
     inkscape:zoom="1.534503"
     inkscape:cx="240.20221"
     inkscape:cy="227.97131"
     inkscape:window-x="0"
     inkscape:window-y="0"
     inkscape:window-maximized="1"
     inkscape:current-layer="g10" /><g
     id="g10"
     inkscape:groupmode="layer"
     inkscape:label="LOGO 9.3.16"
     transform="matrix(1.25,0,0,-1.25,0,512)"><g
       transform="scale(1,-1)"
       style="font-variant:normal;font-weight:normal;font-stretch:normal;font-size:49.34437943px;font-family:'Century Gothic';-inkscape-font-specification:CenturyGothic;writing-mode:lr-tb;fill:#5a3114;fill-opacity:1;fill-rule:nonzero;stroke:none"
       id="text12"><path
         d="m 126.59688,-38.639019 q -4.82422,-1.386719 -7.03125,-3.398438 -2.1875,-2.03125 -2.1875,-5 0,-3.359375 2.67578,-5.546875 2.69531,-2.207031 6.99219,-2.207031 2.92968,0 5.21484,1.132813 2.30469,1.132812 3.55469,3.125 1.26953,1.992187 1.26953,4.355468 l -3.76953,0 q 0,-2.578125 -1.64063,-4.042968 -1.64062,-1.484375 -4.6289,-1.484375 -2.77344,0 -4.33594,1.230468 -1.54297,1.210938 -1.54297,3.378907 0,1.738281 1.46484,2.949218 1.48438,1.191407 5.01954,2.1875 3.55468,0.996094 5.54687,2.207032 2.01172,1.191406 2.96875,2.792968 0.97656,1.601563 0.97656,3.769532 0,3.457031 -2.69531,5.546875 -2.69531,2.070312 -7.20703,2.070312 -2.92969,0 -5.46875,-1.113281 -2.53906,-1.132813 -3.92578,-3.085938 -1.36719,-1.953125 -1.36719,-4.433593 l 3.76953,0 q 0,2.578125 1.89453,4.082031 1.91407,1.484375 5.09766,1.484375 2.96875,0 4.55078,-1.210938 1.58203,-1.210937 1.58203,-3.300781 0,-2.089844 -1.46484,-3.222656 -1.46485,-1.152344 -5.3125,-2.265625 z"
         style="font-style:normal;font-variant:normal;font-weight:normal;font-stretch:normal;font-size:40px;font-family:Roboto;-inkscape-font-specification:Roboto;letter-spacing:0px"
         id="path3406" /><path
         d="m 154.37032,-25.963238 q -0.3125,-0.625 -0.50782,-2.226562 -2.51953,2.617187 -6.01562,2.617187 -3.125,0 -5.13672,-1.757812 -1.99219,-1.777344 -1.99219,-4.492188 0,-3.300781 2.5,-5.117187 2.51953,-1.835938 7.07031,-1.835938 l 3.51563,0 0,-1.660156 q 0,-1.894531 -1.13281,-3.007813 -1.13282,-1.132812 -3.33985,-1.132812 -1.93359,0 -3.24218,0.976562 -1.3086,0.976563 -1.3086,2.363282 l -3.63281,0 q 0,-1.582032 1.11328,-3.046875 1.13281,-1.484375 3.04688,-2.34375 1.93359,-0.859375 4.23828,-0.859375 3.65234,0 5.72265,1.835937 2.07032,1.816406 2.14844,5.019531 l 0,9.726563 q 0,2.910156 0.74219,4.628906 l 0,0.3125 -3.78906,0 z m -5.9961,-2.753906 q 1.69922,0 3.22266,-0.878906 1.52344,-0.878907 2.20703,-2.285157 l 0,-4.335937 -2.83203,0 q -6.64063,0 -6.64063,3.886719 0,1.699218 1.13282,2.65625 1.13281,0.957031 2.91015,0.957031 z"
         style="font-style:normal;font-variant:normal;font-weight:normal;font-stretch:normal;font-size:40px;font-family:Roboto;-inkscape-font-specification:Roboto;letter-spacing:0px"
         id="path3408" /><path
         d="m 166.46016,-47.09605 0.11719,2.65625 q 2.42187,-3.046875 6.32812,-3.046875 6.69922,0 6.75781,7.558593 l 0,13.964844 -3.61328,0 0,-13.984375 q -0.0195,-2.285156 -1.05468,-3.378906 -1.01563,-1.09375 -3.1836,-1.09375 -1.75781,0 -3.08594,0.9375 -1.32812,0.9375 -2.07031,2.460937 l 0,15.058594 -3.61328,0 0,-21.132812 3.41797,0 z"
         style="font-style:normal;font-variant:normal;font-weight:normal;font-stretch:normal;font-size:40px;font-family:Roboto;-inkscape-font-specification:Roboto;letter-spacing:0px"
         id="path3410" /><path
         d="m 190.05391,-52.213238 0,5.117188 3.94531,0 0,2.792968 -3.94531,0 0,13.105469 q 0,1.269531 0.52734,1.914063 0.52735,0.625 1.79688,0.625 0.625,0 1.71875,-0.234375 l 0,2.929687 q -1.42578,0.390625 -2.77344,0.390625 -2.42187,0 -3.65234,-1.464844 -1.23047,-1.464843 -1.23047,-4.160156 l 0,-13.105469 -3.84766,0 0,-2.792968 3.84766,0 0,-5.117188 3.61328,0 z"
         style="font-style:normal;font-variant:normal;font-weight:normal;font-stretch:normal;font-size:40px;font-family:Roboto;-inkscape-font-specification:Roboto;letter-spacing:0px"
         id="path3412" /><path
         d="m 211.24532,-25.963238 q -0.3125,-0.625 -0.50782,-2.226562 -2.51953,2.617187 -6.01562,2.617187 -3.125,0 -5.13672,-1.757812 -1.99219,-1.777344 -1.99219,-4.492188 0,-3.300781 2.5,-5.117187 2.51953,-1.835938 7.07031,-1.835938 l 3.51563,0 0,-1.660156 q 0,-1.894531 -1.13281,-3.007813 -1.13282,-1.132812 -3.33985,-1.132812 -1.93359,0 -3.24218,0.976562 -1.3086,0.976563 -1.3086,2.363282 l -3.63281,0 q 0,-1.582032 1.11328,-3.046875 1.13281,-1.484375 3.04688,-2.34375 1.93359,-0.859375 4.23828,-0.859375 3.65234,0 5.72265,1.835937 2.07032,1.816406 2.14844,5.019531 l 0,9.726563 q 0,2.910156 0.74219,4.628906 l 0,0.3125 -3.78906,0 z m -5.9961,-2.753906 q 1.69922,0 3.22266,-0.878906 1.52344,-0.878907 2.20703,-2.285157 l 0,-4.335937 -2.83203,0 q -6.64063,0 -6.64063,3.886719 0,1.699218 1.13282,2.65625 1.13281,0.957031 2.91015,0.957031 z"
         style="font-style:normal;font-variant:normal;font-weight:normal;font-stretch:normal;font-size:40px;font-family:Roboto;-inkscape-font-specification:Roboto;letter-spacing:0px"
         id="path3414" /><path
         d="m 227.71016,-39.185894 -3.47656,3.613281 0,9.609375 -3.75,0 0,-28.4375 3.75,0 0,14.0625 12.63672,-14.0625 4.53125,0 -11.19141,12.558594 12.07031,15.878906 -4.49219,0 -10.07812,-13.222656 z"
         style="font-style:normal;font-variant:normal;font-weight:normal;font-stretch:normal;font-size:40px;font-family:Roboto;-inkscape-font-specification:Roboto;letter-spacing:0px"
         id="path3416" /><path
         d="m 258.04219,-25.963238 q -0.3125,-0.625 -0.50781,-2.226562 -2.51953,2.617187 -6.01563,2.617187 -3.125,0 -5.13672,-1.757812 -1.99218,-1.777344 -1.99218,-4.492188 0,-3.300781 2.5,-5.117187 2.51953,-1.835938 7.07031,-1.835938 l 3.51562,0 0,-1.660156 q 0,-1.894531 -1.13281,-3.007813 -1.13281,-1.132812 -3.33984,-1.132812 -1.9336,0 -3.24219,0.976562 -1.30859,0.976563 -1.30859,2.363282 l -3.63282,0 q 0,-1.582032 1.11329,-3.046875 1.13281,-1.484375 3.04687,-2.34375 1.93359,-0.859375 4.23828,-0.859375 3.65235,0 5.72266,1.835937 2.07031,1.816406 2.14844,5.019531 l 0,9.726563 q 0,2.910156 0.74218,4.628906 l 0,0.3125 -3.78906,0 z m -5.99609,-2.753906 q 1.69922,0 3.22265,-0.878906 1.52344,-0.878907 2.20703,-2.285157 l 0,-4.335937 -2.83203,0 q -6.64062,0 -6.64062,3.886719 0,1.699218 1.13281,2.65625 1.13281,0.957031 2.91016,0.957031 z"
         style="font-style:normal;font-variant:normal;font-weight:normal;font-stretch:normal;font-size:40px;font-family:Roboto;-inkscape-font-specification:Roboto;letter-spacing:0px"
         id="path3418" /><path
         d="m 270.13203,-47.09605 0.11719,2.65625 q 2.42188,-3.046875 6.32813,-3.046875 6.69922,0 6.75781,7.558593 l 0,13.964844 -3.61328,0 0,-13.984375 q -0.0195,-2.285156 -1.05469,-3.378906 -1.01562,-1.09375 -3.18359,-1.09375 -1.75782,0 -3.08594,0.9375 -1.32813,0.9375 -2.07031,2.460937 l 0,15.058594 -3.61328,0 0,-21.132812 3.41796,0 z"
         style="font-style:normal;font-variant:normal;font-weight:normal;font-stretch:normal;font-size:40px;font-family:Roboto;-inkscape-font-specification:Roboto;letter-spacing:0px"
         id="path3420" /><path
         d="m 292.74922,-25.963238 -3.61328,0 0,-21.132812 3.61328,0 0,21.132812 z m -3.90625,-26.738281 q 0,-0.878906 0.52735,-1.484375 0.54687,-0.605469 1.60156,-0.605469 1.05469,0 1.60156,0.605469 0.54688,0.605469 0.54688,1.484375 0,0.878906 -0.54688,1.464844 -0.54687,0.585937 -1.60156,0.585937 -1.05469,0 -1.60156,-0.585937 -0.52735,-0.585938 -0.52735,-1.464844 z"
         style="font-style:normal;font-variant:normal;font-weight:normal;font-stretch:normal;font-size:40px;font-family:Roboto;-inkscape-font-specification:Roboto;letter-spacing:0px"
         id="path3422" /></g><g
       id="g3433"><path
         d="m 164.47269,257.26081 c 0,0 -65.699878,79.85071 -32.49367,112.09931 24.61646,23.89939 58.78482,9.66989 63.65909,-16.21734 5.8803,-31.21383 -31.16542,-95.88197 -31.16542,-95.88197"
         style="fill:#bdbcbc;fill-opacity:1;fill-rule:nonzero;stroke:none"
         id="path26"
         inkscape:connector-curvature="0" /><path
         d="m 253.84519,258.48407 c 0,0 65.69988,79.8492 32.49367,112.09628 -24.61646,23.90242 -58.78633,9.67141 -63.65909,-16.21582 -5.8803,-31.21383 31.16542,-95.88046 31.16542,-95.88046"
         style="fill:#bdbcbc;fill-opacity:1;fill-rule:nonzero;stroke:none"
         id="path30"
         inkscape:connector-curvature="0" /><path
         d="m 238.61738,173.21855 c -4.90151,0 -8.87566,3.97567 -8.87566,8.87264 0,4.90756 3.97415,8.88171 8.87566,8.88171 4.90302,0 8.87566,-3.97415 8.87566,-8.88171 0,-4.89697 -3.97264,-8.87264 -8.87566,-8.87264 m -60.41865,0 c -4.90151,0 -8.87567,3.97567 -8.87567,8.87264 0,4.90756 3.97416,8.88171 8.87567,8.88171 4.90453,0 8.87869,-3.97415 8.87869,-8.88171 0,-4.89697 -3.97416,-8.87264 -8.87869,-8.87264 m 31.88552,77.30011 c -43.29363,0 -78.38783,-35.09419 -78.38783,-78.38631 0,-43.29212 35.0942,-78.387824 78.38783,-78.387824 43.29212,0 78.3848,35.095704 78.3848,78.387824 0,43.29212 -35.09268,78.38631 -78.3848,78.38631"
         style="fill:#bdbcbc;fill-opacity:1;fill-rule:nonzero;stroke:none"
         id="path34"
         inkscape:connector-curvature="0" /><path
         d="m 155.75481,258.48407 c 0,0 -65.699878,79.8492 -32.49367,112.09628 24.61646,23.90242 58.78633,9.67141 63.65909,-16.21582 5.87879,-31.21383 -31.16542,-95.88046 -31.16542,-95.88046"
         style="fill:#61704b;fill-opacity:1;fill-rule:nonzero;stroke:none"
         id="path38"
         inkscape:connector-curvature="0" /><path
         d="m 245.12655,259.70733 c 0,0 65.7029,79.8492 32.49216,112.0978 -24.61344,23.89939 -58.78331,9.66989 -63.65456,-16.21734 -5.8803,-31.21383 31.1624,-95.88046 31.1624,-95.88046"
         style="fill:#61704b;fill-opacity:1;fill-rule:nonzero;stroke:none"
         id="path42"
         inkscape:connector-curvature="0" /><path
         d="m 229.90102,174.44317 c -4.90302,0 -8.87718,3.97113 -8.87718,8.87415 0,4.90302 3.97416,8.87718 8.87718,8.87718 4.9,0 8.87566,-3.97416 8.87566,-8.87718 0,-4.90302 -3.97566,-8.87415 -8.87566,-8.87415 m -60.41865,0 c -4.90302,0 -8.87718,3.97113 -8.87718,8.87415 0,4.90302 3.97416,8.87718 8.87718,8.87718 4.90302,0 8.87717,-3.97416 8.87717,-8.87718 0,-4.90302 -3.97415,-8.87415 -8.87717,-8.87415 m 31.88401,77.29709 c -43.29364,0 -78.38783,-35.0942 -78.38783,-78.38631 0,-43.28758 35.09419,-78.384804 78.38783,-78.384804 43.29211,0 78.38631,35.097224 78.38631,78.384804 0,43.29211 -35.0942,78.38631 -78.38631,78.38631"
         style="fill:#d81f2d;fill-opacity:1;fill-rule:nonzero;stroke:none"
         id="path46"
         inkscape:connector-curvature="0" /></g></g></svg>