<?xml version="1.0" encoding="UTF-8" standalone="no"?>
<!-- Created with Inkscape (http://www.inkscape.org/) -->

<svg
   xmlns:dc="http://purl.org/dc/elements/1.1/"
   xmlns:cc="http://creativecommons.org/ns#"
   xmlns:rdf="http://www.w3.org/1999/02/22-rdf-syntax-ns#"
   xmlns:svg="http://www.w3.org/2000/svg"
   xmlns="http://www.w3.org/2000/svg"
   xmlns:sodipodi="http://sodipodi.sourceforge.net/DTD/sodipodi-0.dtd"
   xmlns:inkscape="http://www.inkscape.org/namespaces/inkscape"
   width="1200"
   height="600"
   viewBox="0 0 317.49999 158.75"
   version="1.1"
   id="svg8"
   inkscape:version="0.92.0 r"
   sodipodi:docname="largebanner.svg">
  <defs
     id="defs2" />
  <sodipodi:namedview
     id="base"
     pagecolor="#ffffff"
     bordercolor="#666666"
     borderopacity="1.0"
     inkscape:pageopacity="0.0"
     inkscape:pageshadow="2"
     inkscape:zoom="0.98994949"
     inkscape:cx="428.62965"
     inkscape:cy="289.36439"
     inkscape:document-units="px"
     inkscape:current-layer="layer1"
     showgrid="false"
     units="px"
     inkscape:snap-page="true"
     inkscape:window-width="1920"
     inkscape:window-height="1015"
     inkscape:window-x="0"
     inkscape:window-y="0"
     inkscape:window-maximized="1" />
  <metadata
     id="metadata5">
    <rdf:RDF>
      <cc:Work
         rdf:about="">
        <dc:format>image/svg+xml</dc:format>
        <dc:type
           rdf:resource="http://purl.org/dc/dcmitype/StillImage" />
        <dc:title />
      </cc:Work>
    </rdf:RDF>
  </metadata>
  <g
     inkscape:label="Layer 1"
     inkscape:groupmode="layer"
     id="layer1"
     transform="translate(0,-138.24998)">
    <rect
       style="opacity:1;fill:#f2f2f2;fill-opacity:1;stroke:none;stroke-width:0;stroke-linecap:round;stroke-linejoin:round;stroke-miterlimit:0;stroke-dasharray:none;stroke-dashoffset:0;stroke-opacity:1"
       id="rect4485"
       width="317.5"
       height="158.75"
       x="0"
       y="138.24998" />
    <g
       id="g4515">
      <g
         id="text4489"
         style="font-style:normal;font-variant:normal;font-weight:normal;font-stretch:normal;font-size:10.58333302px;line-height:7.9375px;font-family:Ionicons;-inkscape-font-specification:Ionicons;letter-spacing:0px;word-spacing:0px;fill:#555555;fill-opacity:1;stroke:none;stroke-width:0.26458332px;stroke-linecap:butt;stroke-linejoin:miter;stroke-opacity:1"
         aria-label="ïµ">
        <path
           id="path4502"
           style="font-style:normal;font-variant:normal;font-weight:normal;font-stretch:normal;font-size:50.79999924px;font-family:Ionicons;-inkscape-font-specification:Ionicons;fill:#555555;fill-opacity:1;stroke-width:0.26458332px"
           d="m 174.82343,201.29347 q 1.28985,0 2.0836,0.89297 0.89297,0.79375 0.89297,2.18281 v 17.4625 q 0,1.38906 -0.89297,2.38125 -0.79375,0.89297 -2.0836,0.89297 h -31.75 q -1.38906,0 -2.38125,-0.99219 Q 139.7,223.12159 139.7,221.83175 v -17.4625 q 0,-1.28984 0.99218,-2.18281 0.99219,-0.89297 2.38125,-0.89297 h 1.28985 v -1.5875 h 3.37344 v 1.5875 h 1.28984 q 2.57969,-2.97656 3.57187,-3.86953 1.09141,-0.89297 1.88516,-0.89297 h 8.73125 q 0.79375,0 1.78594,0.89297 1.0914,0.89297 3.67109,3.86953 z m 1.38907,20.53828 v -17.4625 q 0,-1.48828 -1.38907,-1.48828 h -6.15156 -0.69453 l -0.49609,-0.29766 q -0.29766,-0.39687 -0.99219,-1.0914 -0.59531,-0.69453 -1.48828,-1.68672 -0.79375,-0.99219 -1.09141,-1.28985 l -0.69453,-0.39687 h -8.73125 q -0.19844,0 -0.69453,0.39687 -0.69453,0.59532 -2.48047,2.67891 -0.89297,1.19063 -1.09141,1.38906 l -0.49609,0.29766 h -0.69453 -5.95313 q -0.69453,0 -1.28984,0.49609 -0.49609,0.39688 -0.49609,0.99219 v 17.4625 q 0,0.69453 0.49609,1.19063 0.59531,0.49609 1.28984,0.49609 h 31.75 q 1.38907,0 1.38907,-1.68672 z M 152.69765,206.7505 q 2.57969,-2.48047 6.05235,-2.48047 3.47265,0 5.95312,2.48047 2.57969,2.48047 2.57969,5.95313 0,3.47265 -2.57969,5.95312 -2.48047,2.48047 -5.95312,2.48047 -3.47266,0 -6.05235,-2.48047 -2.48047,-2.48047 -2.48047,-5.95312 0,-3.47266 2.48047,-5.95313 z m 1.09141,10.81484 q 2.08359,1.98438 4.96094,1.98438 2.87734,0 4.86172,-1.98438 2.08359,-2.08359 2.08359,-4.86171 0,-2.77813 -2.08359,-4.7625 -1.98438,-2.0836 -4.86172,-2.0836 -2.87735,0 -4.96094,2.0836 -1.98438,1.98437 -1.98438,4.7625 0,2.77812 1.98438,4.86171 z M 168.275,206.15519 v -1.68672 h 1.68672 v 1.68672 z m -9.525,9.72344 q -3.175,0 -3.175,-3.175 0,-3.175 3.175,-3.175 3.175,0 3.175,3.175 0,3.175 -3.175,3.175 z" />
      </g>
      <g
         id="text4502"
         style="font-style:normal;font-weight:normal;font-size:10.58333302px;line-height:7.9375px;font-family:sans-serif;letter-spacing:0px;word-spacing:0px;fill:#555555;fill-opacity:1;stroke:none;stroke-width:0.26458332px;stroke-linecap:butt;stroke-linejoin:miter;stroke-opacity:1"
         aria-label="NO IMAGE">
        <path
           id="path4487"
           style="font-style:normal;font-variant:normal;font-weight:normal;font-stretch:normal;font-family:'Roboto Slab';-inkscape-font-specification:'Roboto Slab';fill:#555555;fill-opacity:1;stroke-width:0.26458332px"
           d="m 140.23692,231.08637 v 0.65629 l -0.84232,0.14469 v 6.72311 h -1.01803 l -3.61735,-5.80843 -0.031,0.0103 v 5.00228 l 0.84232,0.1447 v 0.65112 h -2.70268 v -0.65112 l 0.84233,-0.1447 v -5.92729 l -0.84233,-0.14469 v -0.65629 h 0.84233 1.01803 l 3.61735,5.80326 0.031,-0.0103 v -4.99195 l -0.84232,-0.14469 v -0.65629 h 1.86035 z" />
        <path
           id="path4489"
           style="font-style:normal;font-variant:normal;font-weight:normal;font-stretch:normal;font-family:'Roboto Slab';-inkscape-font-specification:'Roboto Slab';fill:#555555;fill-opacity:1;stroke-width:0.26458332px"
           d="m 147.63182,234.90526 q 0,1.64331 -0.94568,2.72851 -0.94051,1.08521 -2.43913,1.08521 -1.45727,0 -2.36678,-1.08521 -0.9095,-1.0852 -0.9095,-2.72851 v -0.10852 q 0,-1.63815 0.9095,-2.72852 0.90951,-1.09037 2.36678,-1.09037 1.49862,0 2.43913,1.09037 0.94568,1.09037 0.94568,2.72852 z m -1.01803,-0.11886 q 0,-1.31258 -0.63045,-2.1394 -0.62528,-0.83199 -1.73633,-0.83199 -1.06453,0 -1.66398,0.83199 -0.59428,0.83199 -0.59428,2.1394 v 0.11886 q 0,1.32291 0.59428,2.15491 0.59945,0.82682 1.66398,0.82682 1.12655,0 1.74667,-0.82682 0.62011,-0.82683 0.62011,-2.15491 z" />
        <path
           id="path4491"
           style="font-style:normal;font-variant:normal;font-weight:normal;font-stretch:normal;font-family:'Roboto Slab';-inkscape-font-specification:'Roboto Slab';fill:#555555;fill-opacity:1;stroke-width:0.26458332px"
           d="m 151.01146,231.74266 v -0.65629 h 2.70268 v 0.65629 l -0.84233,0.14469 v 5.92729 l 0.84233,0.1447 v 0.65112 h -2.70268 v -0.65112 l 0.84232,-0.1447 v -5.92729 z" />
        <path
           id="path4493"
           style="font-style:normal;font-variant:normal;font-weight:normal;font-stretch:normal;font-family:'Roboto Slab';-inkscape-font-specification:'Roboto Slab';fill:#555555;fill-opacity:1;stroke-width:0.26458332px"
           d="m 161.8015,232.58499 -0.0258,-0.005 -2.43396,6.03064 h -0.67696 l -2.43396,-6.02547 -0.0258,0.005 0.10335,3.04375 v 2.18074 l 0.84233,0.1447 v 0.65112 h -2.70268 v -0.65112 l 0.84233,-0.1447 v -5.92729 l -0.84233,-0.14469 v -0.65629 h 0.84233 1.30224 l 2.39779,6.11332 h 0.031 l 2.39261,-6.11332 h 2.14974 v 0.65629 l -0.84232,0.14469 v 5.92729 l 0.84232,0.1447 v 0.65112 h -2.70267 v -0.65112 l 0.84232,-0.1447 v -2.18074 z" />
        <path
           id="path4495"
           style="font-style:normal;font-variant:normal;font-weight:normal;font-stretch:normal;font-family:'Roboto Slab';-inkscape-font-specification:'Roboto Slab';fill:#555555;fill-opacity:1;stroke-width:0.26458332px"
           d="m 164.20445,237.95934 0.55811,-0.0775 2.63033,-6.79545 h 0.87333 l 2.58382,6.79545 0.55294,0.0775 v 0.65112 h -2.16008 v -0.65112 l 0.56844,-0.0982 -0.49609,-1.38493 h -3.01274 l -0.51159,1.38493 0.56844,0.0982 v 0.65112 h -2.15491 z m 2.41329,-2.33578 h 2.38745 l -1.16789,-3.22978 h -0.031 z" />
        <path
           id="path4497"
           style="font-style:normal;font-variant:normal;font-weight:normal;font-stretch:normal;font-family:'Roboto Slab';-inkscape-font-specification:'Roboto Slab';fill:#555555;fill-opacity:1;stroke-width:0.26458332px"
           d="m 177.61449,237.7578 q -0.33073,0.34623 -0.97669,0.65629 -0.64595,0.30489 -1.67948,0.30489 -1.50895,0 -2.46497,-1.05937 -0.95084,-1.05936 -0.95084,-2.74918 v -0.12403 q 0,-1.70015 0.94051,-2.75435 0.94568,-1.0542 2.51147,-1.0542 0.83716,0 1.46761,0.26355 0.63562,0.25838 1.0697,0.6873 v 1.36425 h -0.71313 l -0.24805,-1.03869 q -0.25321,-0.20671 -0.61495,-0.34107 -0.35656,-0.13436 -0.85783,-0.13436 -1.21956,0 -1.88102,0.83716 -0.65629,0.83199 -0.65629,2.16008 v 0.13436 q 0,1.34875 0.63562,2.18074 0.64079,0.83199 1.76217,0.83199 0.61495,0 1.00769,-0.12919 0.39274,-0.12919 0.63045,-0.28422 v -1.64848 l -1.23507,-0.0517 v -0.74931 h 2.2531 z" />
        <path
           id="path4499"
           style="font-style:normal;font-variant:normal;font-weight:normal;font-stretch:normal;font-family:'Roboto Slab';-inkscape-font-specification:'Roboto Slab';fill:#555555;fill-opacity:1;stroke-width:0.26458332px"
           d="m 178.79788,238.61046 v -0.65112 l 0.84232,-0.1447 v -5.92729 l -0.84232,-0.14469 v -0.65629 h 5.77742 v 1.80868 h -0.87333 l -0.0827,-1.0077 h -2.96106 v 2.43396 h 2.87837 v 0.80099 h -2.87837 v 2.69234 h 3.02307 l 0.0827,-1.00769 h 0.86816 v 1.80351 z" />
      </g>
    </g>
  </g>
</svg>
