<?xml version="1.0" encoding="UTF-8" standalone="no"?>
<!-- Created with Inkscape (http://www.inkscape.org/) -->

<svg
   xmlns:dc="http://purl.org/dc/elements/1.1/"
   xmlns:cc="http://creativecommons.org/ns#"
   xmlns:rdf="http://www.w3.org/1999/02/22-rdf-syntax-ns#"
   xmlns:svg="http://www.w3.org/2000/svg"
   xmlns="http://www.w3.org/2000/svg"
   xmlns:sodipodi="http://sodipodi.sourceforge.net/DTD/sodipodi-0.dtd"
   xmlns:inkscape="http://www.inkscape.org/namespaces/inkscape"
   width="600"
   height="600"
   viewBox="0 0 158.748 158.748"
   version="1.1"
   id="svg8"
   inkscape:version="0.92.0 r"
   sodipodi:docname="largethumb.svg"
   inkscape:export-filename="/home/sign/git/santakani/resources/assets/img/placeholder/largethumb.png"
   inkscape:export-xdpi="96"
   inkscape:export-ydpi="96">
  <defs
     id="defs2" />
  <sodipodi:namedview
     id="base"
     pagecolor="#ffffff"
     bordercolor="#666666"
     borderopacity="1.0"
     inkscape:pageopacity="0.0"
     inkscape:pageshadow="2"
     inkscape:zoom="0.98994949"
     inkscape:cx="164.55577"
     inkscape:cy="266.29472"
     inkscape:document-units="px"
     inkscape:current-layer="layer1"
     showgrid="false"
     units="px"
     inkscape:snap-page="true"
     inkscape:window-width="1920"
     inkscape:window-height="1014"
     inkscape:window-x="0"
     inkscape:window-y="0"
     inkscape:window-maximized="1"
     scale-x="0.26458" />
  <metadata
     id="metadata5">
    <rdf:RDF>
      <cc:Work
         rdf:about="">
        <dc:format>image/svg+xml</dc:format>
        <dc:type
           rdf:resource="http://purl.org/dc/dcmitype/StillImage" />
        <dc:title></dc:title>
      </cc:Work>
    </rdf:RDF>
  </metadata>
  <g
     inkscape:label="Layer 1"
     inkscape:groupmode="layer"
     id="layer1"
     transform="translate(0,-138.25098)">
    <rect
       style="opacity:1;fill:#f2f2f2;fill-opacity:1;stroke:none;stroke-width:0;stroke-linecap:round;stroke-linejoin:round;stroke-miterlimit:0;stroke-dasharray:none;stroke-dashoffset:0;stroke-opacity:1"
       id="rect4485"
       width="158.748"
       height="158.74802"
       x="0"
       y="138.25099" />
    <g
       id="g4570"
       transform="translate(-3.5e-6,-39.687)">
      <g
         id="text4489"
         style="font-style:normal;font-variant:normal;font-weight:normal;font-stretch:normal;font-size:10.58333302px;line-height:7.9375px;font-family:Ionicons;-inkscape-font-specification:Ionicons;letter-spacing:0px;word-spacing:0px;fill:#555555;fill-opacity:1;stroke:none;stroke-width:0.26458332px;stroke-linecap:butt;stroke-linejoin:miter;stroke-opacity:1"
         aria-label="ïµ">
        <path
           id="path4557"
           style="font-style:normal;font-variant:normal;font-weight:normal;font-stretch:normal;font-size:50.79999924px;font-family:Ionicons;-inkscape-font-specification:Ionicons;fill:#555555;fill-opacity:1;stroke-width:0.26458332px"
           d="m 95.447431,240.98048 q 1.289843,0 2.083593,0.89297 0.892969,0.79375 0.892969,2.18281 v 17.4625 q 0,1.38906 -0.892969,2.38125 -0.79375,0.89297 -2.083593,0.89297 h -31.75 q -1.389062,0 -2.38125,-0.99219 -0.992187,-0.99218 -0.992187,-2.28203 v -17.4625 q 0,-1.28984 0.992187,-2.18281 0.992188,-0.89297 2.38125,-0.89297 h 1.289844 v -1.5875 h 3.373437 v 1.5875 h 1.289844 q 2.579688,-2.97656 3.571875,-3.86953 1.091406,-0.89297 1.885156,-0.89297 h 8.73125 q 0.79375,0 1.785938,0.89297 1.091406,0.89297 3.671093,3.86953 z m 1.389062,20.53828 v -17.4625 q 0,-1.48828 -1.389062,-1.48828 h -6.151563 -0.694531 l -0.496094,-0.29765 q -0.297656,-0.39688 -0.992187,-1.09141 -0.595313,-0.69453 -1.488281,-1.68672 -0.79375,-0.99219 -1.091407,-1.28984 l -0.694531,-0.39688 h -8.73125 q -0.198437,0 -0.694531,0.39688 -0.694531,0.59531 -2.480469,2.6789 -0.892968,1.19063 -1.091406,1.38907 l -0.496094,0.29765 h -0.694531 -5.953125 q -0.694531,0 -1.289844,0.4961 -0.496093,0.39687 -0.496093,0.99218 v 17.4625 q 0,0.69453 0.496093,1.19063 0.595313,0.49609 1.289844,0.49609 h 31.75 q 1.389062,0 1.389062,-1.68672 z M 73.32165,246.43751 q 2.579687,-2.48047 6.052343,-2.48047 3.472657,0 5.953125,2.48047 2.579688,2.48047 2.579688,5.95313 0,3.47265 -2.579688,5.95312 -2.480468,2.48047 -5.953125,2.48047 -3.472656,0 -6.052343,-2.48047 -2.480469,-2.48047 -2.480469,-5.95312 0,-3.47266 2.480469,-5.95313 z m 1.091406,10.81485 q 2.083594,1.98437 4.960937,1.98437 2.877344,0 4.861719,-1.98437 2.083594,-2.0836 2.083594,-4.86172 0,-2.77813 -2.083594,-4.7625 -1.984375,-2.0836 -4.861719,-2.0836 -2.877343,0 -4.960937,2.0836 -1.984375,1.98437 -1.984375,4.7625 0,2.77812 1.984375,4.86172 z M 88.898993,245.8422 v -1.68672 h 1.686719 v 1.68672 z m -9.525,9.72344 q -3.175,0 -3.175,-3.175 0,-3.175 3.175,-3.175 3.175,0 3.175,3.175 0,3.175 -3.175,3.175 z"
           inkscape:connector-curvature="0" />
      </g>
      <g
         id="text4502"
         style="font-style:normal;font-weight:normal;font-size:10.58333302px;line-height:7.9375px;font-family:sans-serif;letter-spacing:0px;word-spacing:0px;fill:#555555;fill-opacity:1;stroke:none;stroke-width:0.26458332px;stroke-linecap:butt;stroke-linejoin:miter;stroke-opacity:1"
         aria-label="NO IMAGE">
        <path
           id="path4542"
           style="font-style:normal;font-variant:normal;font-weight:normal;font-stretch:normal;font-family:'Roboto Slab';-inkscape-font-specification:'Roboto Slab';fill:#555555;fill-opacity:1;stroke-width:0.26458332px"
           d="m 60.86092,270.77337 v 0.65629 l -0.842326,0.14469 v 6.7231 h -1.018026 l -3.61735,-5.80843 -0.03101,0.0103 v 5.00228 l 0.842326,0.14469 v 0.65112 h -2.702677 v -0.65112 l 0.842326,-0.14469 v -5.92729 l -0.842326,-0.14469 v -0.65629 h 0.842326 1.018025 l 3.61735,5.80326 0.03101,-0.0103 v -4.99194 l -0.842326,-0.14469 v -0.65629 h 1.860352 z"
           inkscape:connector-curvature="0" />
        <path
           id="path4544"
           style="font-style:normal;font-variant:normal;font-weight:normal;font-stretch:normal;font-family:'Roboto Slab';-inkscape-font-specification:'Roboto Slab';fill:#555555;fill-opacity:1;stroke-width:0.26458332px"
           d="m 68.255817,274.59225 q 0,1.64332 -0.945678,2.72852 -0.940512,1.08521 -2.439128,1.08521 -1.457275,0 -2.366781,-1.08521 -0.909505,-1.0852 -0.909505,-2.72852 v -0.10852 q 0,-1.63814 0.909505,-2.72851 0.909506,-1.09037 2.366781,-1.09037 1.498616,0 2.439128,1.09037 0.945678,1.09037 0.945678,2.72851 z m -1.018025,-0.11885 q 0,-1.31258 -0.630453,-2.13941 -0.625285,-0.83199 -1.736328,-0.83199 -1.064534,0 -1.663981,0.83199 -0.594279,0.832 -0.594279,2.13941 v 0.11885 q 0,1.32292 0.594279,2.15491 0.599447,0.82682 1.663981,0.82682 1.126546,0 1.746663,-0.82682 0.620118,-0.82682 0.620118,-2.15491 z"
           inkscape:connector-curvature="0" />
        <path
           id="path4546"
           style="font-style:normal;font-variant:normal;font-weight:normal;font-stretch:normal;font-family:'Roboto Slab';-inkscape-font-specification:'Roboto Slab';fill:#555555;fill-opacity:1;stroke-width:0.26458332px"
           d="m 71.635455,271.42966 v -0.65629 h 2.702677 v 0.65629 l -0.842326,0.14469 v 5.92729 l 0.842326,0.14469 v 0.65112 h -2.702677 v -0.65112 l 0.842326,-0.14469 v -5.92729 z"
           inkscape:connector-curvature="0" />
        <path
           id="path4548"
           style="font-style:normal;font-variant:normal;font-weight:normal;font-stretch:normal;font-family:'Roboto Slab';-inkscape-font-specification:'Roboto Slab';fill:#555555;fill-opacity:1;stroke-width:0.26458332px"
           d="m 82.425495,272.27198 -0.02584,-0.005 -2.43396,6.03063 h -0.676961 l -2.43396,-6.02547 -0.02584,0.005 0.103353,3.04374 v 2.18075 l 0.842326,0.14469 v 0.65112 h -2.702677 v -0.65112 l 0.842326,-0.14469 v -5.92729 l -0.842326,-0.14469 v -0.65629 h 0.842326 1.302246 l 2.397786,6.11332 h 0.03101 l 2.392619,-6.11332 h 2.149739 v 0.65629 l -0.842326,0.14469 v 5.92729 l 0.842326,0.14469 v 0.65112 h -2.702677 v -0.65112 l 0.842326,-0.14469 v -2.18075 z"
           inkscape:connector-curvature="0" />
        <path
           id="path4550"
           style="font-style:normal;font-variant:normal;font-weight:normal;font-stretch:normal;font-family:'Roboto Slab';-inkscape-font-specification:'Roboto Slab';fill:#555555;fill-opacity:1;stroke-width:0.26458332px"
           d="m 84.828448,277.64633 0.558105,-0.0775 2.630331,-6.79545 h 0.873331 l 2.583822,6.79545 0.552938,0.0775 v 0.65112 H 89.8669 v -0.65112 l 0.568441,-0.0982 -0.496094,-1.38493 h -3.012736 l -0.511597,1.38493 0.568441,0.0982 v 0.65112 h -2.154907 z m 2.413289,-2.33577 h 2.387451 l -1.167887,-3.22978 h -0.03101 z"
           inkscape:connector-curvature="0" />
        <path
           id="path4552"
           style="font-style:normal;font-variant:normal;font-weight:normal;font-stretch:normal;font-family:'Roboto Slab';-inkscape-font-specification:'Roboto Slab';fill:#555555;fill-opacity:1;stroke-width:0.26458332px"
           d="m 98.238483,277.44479 q -0.330729,0.34624 -0.976684,0.65629 -0.645956,0.3049 -1.679484,0.3049 -1.508952,0 -2.464966,-1.05937 -0.950846,-1.05937 -0.950846,-2.74919 v -0.12402 q 0,-1.70016 0.940511,-2.75435 0.945678,-1.0542 2.511474,-1.0542 0.837158,0 1.467611,0.26355 0.63562,0.25838 1.069702,0.68729 v 1.36426 h -0.713135 l -0.248047,-1.0387 q -0.253214,-0.2067 -0.614949,-0.34106 -0.356568,-0.13436 -0.857829,-0.13436 -1.219564,0 -1.881022,0.83716 -0.656291,0.83199 -0.656291,2.16007 v 0.13436 q 0,1.34876 0.63562,2.18075 0.640788,0.83199 1.762167,0.83199 0.614949,0 1.00769,-0.12919 0.392741,-0.12919 0.630453,-0.28422 v -1.64848 l -1.235067,-0.0517 v -0.74931 h 2.253092 z"
           inkscape:connector-curvature="0" />
        <path
           id="path4554"
           style="font-style:normal;font-variant:normal;font-weight:normal;font-stretch:normal;font-family:'Roboto Slab';-inkscape-font-specification:'Roboto Slab';fill:#555555;fill-opacity:1;stroke-width:0.26458332px"
           d="m 99.421872,278.29745 v -0.65112 l 0.842328,-0.14469 v -5.92729 l -0.842328,-0.14469 v -0.65629 h 5.777428 v 1.80867 h -0.87333 l -0.0827,-1.00769 h -2.96106 v 2.43396 h 2.87838 v 0.80099 h -2.87838 v 2.69234 h 3.02308 l 0.0827,-1.00769 h 0.86816 v 1.8035 z"
           inkscape:connector-curvature="0" />
      </g>
    </g>
  </g>
</svg>
