<?xml version="1.0" encoding="UTF-8" standalone="no"?>
<svg
   xmlns:dc="http://purl.org/dc/elements/1.1/"
   xmlns:cc="http://creativecommons.org/ns#"
   xmlns:rdf="http://www.w3.org/1999/02/22-rdf-syntax-ns#"
   xmlns:svg="http://www.w3.org/2000/svg"
   xmlns="http://www.w3.org/2000/svg"
   viewBox="0 0 512 512"
   height="512"
   width="512"
   xml:space="preserve"
   id="svg2"
   version="1.1"><metadata
     id="metadata8"><rdf:RDF><cc:Work
         rdf:about=""><dc:format>image/svg+xml</dc:format><dc:type
           rdf:resource="http://purl.org/dc/dcmitype/StillImage" /><dc:title></dc:title></cc:Work></rdf:RDF></metadata><defs
     id="defs6" /><g
     transform="matrix(1.3333333,0,0,-1.3333333,0,512.00003)"
     id="g10"><g
       transform="translate(-77.375845,-70.280373)"
       id="g4716"><path
         id="path160"
         style="fill:#3e539e;fill-opacity:1;fill-rule:nonzero;stroke:none;stroke-width:0.1"
         d="m 423.233,89.3328 c 10.54,0 19.089,8.5481 19.089,19.0902 v 307.714 c 0,10.545 -8.549,19.091 -19.089,19.091 H 115.52 c -10.545,0 -19.0903,-8.546 -19.0903,-19.091 V 108.423 c 0,-10.5421 8.5453,-19.0902 19.0903,-19.0902 h 307.713" /><path
         id="path162"
         style="fill:#ffffff;fill-opacity:1;fill-rule:nonzero;stroke:none;stroke-width:0.1"
         d="M 335.09,89.3328 V 223.281 h 44.962 l 6.731,52.203 H 335.09 v 33.328 c 0,15.114 4.196,25.414 25.87,25.414 l 27.644,0.013 v 46.689 c -4.782,0.635 -21.191,2.057 -40.281,2.057 -39.856,0 -67.14,-24.327 -67.14,-69.004 v -38.497 h -45.077 v -52.203 h 45.077 V 89.3328 h 53.907" /></g></g></svg>