<?xml version="1.0" encoding="utf-8"?>
<!-- Generator: Adobe Illustrator 16.0.0, SVG Export Plug-In . SVG Version: 6.00 Build 0)  -->
<!DOCTYPE svg PUBLIC "-//W3C//DTD SVG 1.1//EN" "http://www.w3.org/Graphics/SVG/1.1/DTD/svg11.dtd">
<svg version="1.1" id="图层_1" xmlns="http://www.w3.org/2000/svg" xmlns:xlink="http://www.w3.org/1999/xlink" x="0px" y="0px"
	 width="32px" height="32px" viewBox="0 0 32 32" enable-background="new 0 0 32 32" xml:space="preserve">
<g>
	<g>
		<path fill="#B0333E" d="M6.407,9.975c0.254,0.496,0.759,0.837,1.447,1.019c0.401,0.105,0.872,0.158,1.387,0.158
			c0.253,0,0.515-0.019,0.793-0.044c1.605-0.148,3.567-0.724,5.536-1.71c1.379-0.688,2.591-1.49,3.558-2.318
			c1.325-1.125,2.206-2.302,2.467-3.313c0.132-0.506,0.115-0.968-0.086-1.361c-0.401-0.792-1.438-1.175-2.834-1.175
			c-1.228,0-2.737,0.296-4.324,0.889c-0.438,0.157-0.873,0.339-1.317,0.54L12.93,2.476l-0.297-0.541l-0.173-0.322
			c-0.088-0.156-0.21-0.27-0.35-0.349c-0.251-0.139-0.566-0.148-0.836,0c-0.252,0.14-0.411,0.384-0.445,0.653
			c-0.025,0.174,0.009,0.358,0.096,0.524l0.158,0.279l0.287,0.522l0.114,0.2c-0.436,0.245-0.846,0.498-1.239,0.759
			C7.331,6.164,5.684,8.526,6.407,9.975L6.407,9.975z M6.407,9.975"/>
		<path fill="#556080" d="M21.38,7.301c-0.354,0.399-0.766,0.802-1.232,1.197c-0.999,0.856-2.25,1.683-3.672,2.394
			c-2.034,1.018-4.06,1.613-5.716,1.765c-0.288,0.027-0.558,0.046-0.819,0.046c-0.078,0-0.151-0.004-0.226-0.005
			c0.498,3.198,3.264,5.647,6.602,5.647c3.691,0,6.684-2.994,6.684-6.684C23,9.994,22.389,8.471,21.38,7.301z"/>
	</g>
	<path fill="#556080" d="M26.182,30.844c-1.869-6.553-5.5-11-9.673-11c-4.175,0-7.806,4.447-9.675,11H26.182z"/>
</g>
</svg>
