<?xml version="1.0" encoding="utf-8"?>
<!-- Generator: Adobe Illustrator 16.0.0, SVG Export Plug-In . SVG Version: 6.00 Build 0)  -->
<!DOCTYPE svg PUBLIC "-//W3C//DTD SVG 1.1//EN" "http://www.w3.org/Graphics/SVG/1.1/DTD/svg11.dtd">
<svg version="1.1" id="图层_1" xmlns="http://www.w3.org/2000/svg" xmlns:xlink="http://www.w3.org/1999/xlink" x="0px" y="0px"
	 width="32px" height="32px" viewBox="0 0 32 32" enable-background="new 0 0 32 32" xml:space="preserve">
<g>
	<path fill="#556080" d="M25.159,14.029c-0.054-0.353-0.167-0.385-0.195-0.407l-8.653-6.935c-0.19-0.151-0.46-0.151-0.65,0
		l-8.654,6.935c-0.124,0.1-0.195,0.248-0.195,0.407v13.492c0,0.287,0.233,0.52,0.52,0.52h6.456v-5.272
		c0-0.467,0.378-0.846,0.846-0.846h2.733c0.467,0,0.846,0.379,0.846,0.846v5.272h6.427c0.287,0,0.52-0.232,0.52-0.52
		C25.159,27.521,25.225,14.453,25.159,14.029z"/>
	<path fill="#B0333E" d="M29.227,13.249l-12.6-10.054c-0.185-0.149-0.41-0.209-0.629-0.193c-0.217-0.015-0.441,0.046-0.625,0.193
		l-12.6,10.054c-0.391,0.313-0.456,0.886-0.143,1.278c0.18,0.225,0.444,0.341,0.711,0.341c0.198,0,0.398-0.063,0.566-0.197L16,5.019
		l12.094,9.652c0.167,0.134,0.367,0.197,0.565,0.197c0.268,0,0.532-0.116,0.711-0.341C29.683,14.135,29.618,13.563,29.227,13.249z"
		/>
</g>
</svg>
