<?xml version="1.0" encoding="utf-8"?>
<!-- Generator: Adobe Illustrator 16.0.0, SVG Export Plug-In . SVG Version: 6.00 Build 0)  -->
<!DOCTYPE svg PUBLIC "-//W3C//DTD SVG 1.1//EN" "http://www.w3.org/Graphics/SVG/1.1/DTD/svg11.dtd">
<svg version="1.1" id="图层_1" xmlns="http://www.w3.org/2000/svg" xmlns:xlink="http://www.w3.org/1999/xlink" x="0px" y="0px"
	 width="32px" height="32px" viewBox="0 0 32 32" enable-background="new 0 0 32 32" xml:space="preserve">
<g>
	<g>
		<path fill="#556080" d="M26.881,11.527L16.377,3.11c-0.23-0.185-0.559-0.185-0.789,0L5.085,11.527
			c-0.151,0.121-0.237,0.303-0.237,0.493v16.377c0,0.349,0.282,0.631,0.631,0.631h21.007c0.349,0,0.63-0.282,0.63-0.631
			c0,0,0.08-15.862,0-16.377C27.05,11.594,26.914,11.554,26.881,11.527z"/>
	</g>
	<path fill="#FFFFFF" d="M22.259,20.333c0,0.285-0.364,0.516-0.812,0.516h-6.354c-0.447,0-0.811-0.23-0.811-0.516v-6.97
		c0-0.285,0.364-0.516,0.811-0.516h6.354c0.447,0,0.812,0.23,0.812,0.516V20.333z"/>
	<path fill="#B0333E" d="M21,18.665c0,0.158-0.208,0.286-0.466,0.286h-3.643c-0.258,0-0.465-0.128-0.465-0.286v-3.877
		c0-0.159,0.208-0.287,0.465-0.287h3.643c0.257,0,0.466,0.128,0.466,0.287V18.665z"/>
</g>
</svg>
