<?xml version="1.0" encoding="utf-8"?>
<!-- Generator: Adobe Illustrator 16.0.0, SVG Export Plug-In . SVG Version: 6.00 Build 0)  -->
<!DOCTYPE svg PUBLIC "-//W3C//DTD SVG 1.1//EN" "http://www.w3.org/Graphics/SVG/1.1/DTD/svg11.dtd">
<svg version="1.1" id="图层_1" xmlns="http://www.w3.org/2000/svg" xmlns:xlink="http://www.w3.org/1999/xlink" x="0px" y="0px"
	 width="32px" height="32px" viewBox="0 0 32 32" enable-background="new 0 0 32 32" xml:space="preserve">
<g>
	<path fill="#556080" d="M17.082,19.82l-3.161-3.123l0.037-0.039c2.166-2.413,3.709-5.188,4.618-8.124h3.646V6.046h-8.71V3.558
		h-2.489v2.489H2.314v2.476h13.897c-0.833,2.401-2.152,4.679-3.943,6.668c-1.158-1.282-2.116-2.688-2.875-4.167H6.904
		c0.909,2.027,2.153,3.944,3.709,5.674L4.28,22.943l1.768,1.766l6.221-6.221l3.868,3.868L17.082,19.82z"/>
	<path fill="#B0333E" d="M24.087,13.512h-2.488l-5.6,14.931h2.489l1.394-3.733h5.91l1.405,3.733h2.488L24.087,13.512z
		 M20.828,22.221l2.016-5.388l2.016,5.388H20.828z"/>
</g>
</svg>
