<?xml version="1.0" encoding="utf-8"?>
<!-- Generator: Adobe Illustrator 16.0.0, SVG Export Plug-In . SVG Version: 6.00 Build 0)  -->
<!DOCTYPE svg PUBLIC "-//W3C//DTD SVG 1.1//EN" "http://www.w3.org/Graphics/SVG/1.1/DTD/svg11.dtd">
<svg version="1.1" id="图层_1" xmlns="http://www.w3.org/2000/svg" xmlns:xlink="http://www.w3.org/1999/xlink" x="0px" y="0px"
	 width="32px" height="32px" viewBox="0 0 32 32" enable-background="new 0 0 32 32" xml:space="preserve">
<g>
	<path fill="#556080" d="M23.658,2.568H13.68c-2.755,0-4.988,2.232-4.988,4.99v5.275h3.23l-0.596-0.596
		c-0.601-0.6-0.601-1.572,0-2.171l1.898-1.9c0.289-0.286,0.679-0.448,1.086-0.448s0.798,0.162,1.084,0.448l4.755,4.755
		c0.436,0.155,0.782,0.5,0.936,0.936l0.972,0.971c0.599,0.6,0.599,1.57,0,2.172l-0.983,0.98c-0.155,0.413-0.481,0.74-0.893,0.895
		l-0.023,0.022c-0.096,0.098-0.203,0.181-0.319,0.246l-4.69,4.69c-0.288,0.286-0.679,0.447-1.085,0.447
		c-0.407,0-0.796-0.161-1.085-0.447l-1.9-1.9c-0.599-0.6-0.599-1.572,0-2.171l0.788-0.788H8.691v5.469
		c0,2.756,2.233,4.988,4.988,4.988h9.978c2.755,0,4.988-2.232,4.988-4.988V7.559C28.646,4.801,26.413,2.568,23.658,2.568z"/>
	<polygon fill="#B0333E" points="19.638,17.246 20.972,15.914 19.638,14.579 19.638,14.369 19.426,14.369 14.31,9.252 
		12.411,11.152 15.627,14.369 0.833,14.369 0.833,17.438 15.573,17.438 12.164,20.848 14.063,22.748 19.035,17.777 19.072,17.814 
		19.446,17.438 19.638,17.438 	"/>
</g>
</svg>
