<?xml version="1.0" encoding="UTF-8" standalone="no"?>
<!-- Generator: Adobe Illustrator 15.0.2, SVG Export Plug-In . SVG Version: 6.00 Build 0)  -->

<svg
   xmlns:dc="http://purl.org/dc/elements/1.1/"
   xmlns:cc="http://creativecommons.org/ns#"
   xmlns:rdf="http://www.w3.org/1999/02/22-rdf-syntax-ns#"
   xmlns:svg="http://www.w3.org/2000/svg"
   xmlns="http://www.w3.org/2000/svg"
   xmlns:sodipodi="http://sodipodi.sourceforge.net/DTD/sodipodi-0.dtd"
   xmlns:inkscape="http://www.inkscape.org/namespaces/inkscape"
   version="1.0"
   id="Layer_1"
   x="0px"
   y="0px"
   width="20"
   height="32"
   viewBox="0 0 20 32"
   enable-background="new 0 0 2481 2073"
   xml:space="preserve"
   inkscape:version="0.91 r13725"
   sodipodi:docname="orange.svg"><metadata
     id="metadata15"><rdf:RDF><cc:Work
         rdf:about=""><dc:format>image/svg+xml</dc:format><dc:type
           rdf:resource="http://purl.org/dc/dcmitype/StillImage" /><dc:title></dc:title></cc:Work></rdf:RDF></metadata><defs
     id="defs13" /><sodipodi:namedview
     pagecolor="#ffffff"
     bordercolor="#666666"
     borderopacity="1"
     objecttolerance="10"
     gridtolerance="10"
     guidetolerance="10"
     inkscape:pageopacity="0"
     inkscape:pageshadow="2"
     inkscape:window-width="1920"
     inkscape:window-height="1017"
     id="namedview11"
     showgrid="false"
     inkscape:zoom="16"
     inkscape:cx="19.693971"
     inkscape:cy="15.60504"
     inkscape:window-x="0"
     inkscape:window-y="0"
     inkscape:window-maximized="1"
     inkscape:current-layer="Layer_1"
     inkscape:snap-page="true" /><path
     style="clip-rule:evenodd;fill:#ff6600;fill-rule:evenodd;stroke:#803300;stroke-width:0.99999994;stroke-linejoin:round;stroke-miterlimit:10;stroke-dasharray:none"
     inkscape:connector-curvature="0"
     id="path5"
     d="M 10.025277,31.254099 C 9.3215022,27.798267 8.0806451,24.922342 6.577692,22.256873 5.4628814,20.279736 4.1714278,18.454809 2.9765015,16.537494 2.5776118,15.89747 2.233367,15.221338 1.850072,14.557111 1.0836634,13.228951 0.46227271,11.688959 0.50175865,9.6913569 0.54033686,7.7397033 1.1046318,6.1740317 1.9183507,4.8939847 3.2566792,2.7886468 5.4984278,1.0624035 8.5063126,0.60872961 10.965624,0.2378997 13.271403,0.86454224 14.90654,1.820888 c 1.336167,0.7816059 2.370898,1.8256166 3.157422,3.0559769 0.820945,1.2842778 1.386254,2.8014435 1.433674,4.7803509 0.02427,1.0139042 -0.141695,1.9528342 -0.375506,2.7316862 -0.236624,0.788296 -0.617179,1.44721 -0.955758,2.151088 -0.660932,1.374009 -1.489555,2.632902 -2.321139,3.892584 -2.47694,3.751983 -4.801781,7.57835 -5.819956,12.821525 z"
     stroke-miterlimit="10" /><ellipse
     style="clip-rule:evenodd;fill:#803300;fill-rule:evenodd"
     id="circle9"
     cy="9.6737127"
     cx="9.9979935"
     rx="3.3276174"
     ry="3.3286748" /></svg>