<?xml version="1.0" encoding="utf-8"?>
<!-- Generator: Adobe Illustrator 16.0.0, SVG Export Plug-In . SVG Version: 6.00 Build 0)  -->
<!DOCTYPE svg PUBLIC "-//W3C//DTD SVG 1.1//EN" "http://www.w3.org/Graphics/SVG/1.1/DTD/svg11.dtd">
<svg version="1.1" id="图层_1" xmlns="http://www.w3.org/2000/svg" xmlns:xlink="http://www.w3.org/1999/xlink" x="0px" y="0px"
	 width="32px" height="32px" viewBox="0 0 32 32" enable-background="new 0 0 32 32" xml:space="preserve">
<g>
	<path fill="#556080" d="M15.997,0.929c-5.548,0-10.045,4.498-10.045,10.053c0,1.083,0.178,2.125,0.492,3.099
		c0.714,2.517,8.921,16.991,8.921,16.991s8.721-12.657,10.038-16.573c0.411-1.098,0.645-2.276,0.645-3.517
		C26.048,5.427,21.551,0.929,15.997,0.929z M15.997,17.427c-3.539,0-6.405-2.874-6.405-6.411c0-3.545,2.866-6.411,6.405-6.411
		c3.544,0,6.411,2.873,6.411,6.411C22.408,14.553,19.542,17.427,15.997,17.427z"/>
	<path fill="#B0333E" d="M18.431,7.113C18.354,7.107,18.28,7.1,18.205,7.1c-0.789,0-1.681,0.384-2.202,1.104
		c-0.521-0.72-1.412-1.104-2.2-1.104c-0.076,0-0.158,0.007-0.233,0.013c-0.905,0.097-1.543,0.399-1.947,0.926
		c-0.398,0.521-0.528,1.234-0.384,2.126c0.356,2.153,4.341,5.608,4.513,5.752c0.075,0.069,0.17,0.103,0.267,0.103
		c0.096,0,0.192-0.034,0.274-0.103c0.164-0.144,4.121-3.599,4.47-5.752c0.144-0.886,0.014-1.605-0.377-2.119
		C19.981,7.512,19.343,7.21,18.431,7.113L18.431,7.113z"/>
	<path fill="#556080" d="M20.193,10.495"/>
</g>
</svg>
