<?xml version="1.0" encoding="utf-8"?>
<!-- Generator: Adobe Illustrator 16.0.0, SVG Export Plug-In . SVG Version: 6.00 Build 0)  -->
<!DOCTYPE svg PUBLIC "-//W3C//DTD SVG 1.1//EN" "http://www.w3.org/Graphics/SVG/1.1/DTD/svg11.dtd">
<svg version="1.1" id="图层_1" xmlns="http://www.w3.org/2000/svg" xmlns:xlink="http://www.w3.org/1999/xlink" x="0px" y="0px"
	 width="32px" height="32px" viewBox="0 0 32 32" enable-background="new 0 0 32 32" xml:space="preserve">
<g>
	<path fill="#556080" d="M14.484,16.249c0.279-0.493,0.802-0.83,1.408-0.83h2.008c0.167-0.087,0.332-0.178,0.491-0.276v-2.351
		c0-0.897,0.727-1.623,1.624-1.623h1.54c0.252-0.75,0.392-1.552,0.392-2.387c0-4.123-3.343-7.465-7.466-7.465
		S7.014,4.659,7.014,8.782c0,4.124,3.343,7.467,7.466,7.467C14.481,16.249,14.483,16.249,14.484,16.249z"/>
	<polygon fill="#B0333E" points="28,17.042 23.878,17.042 23.878,12.792 20.014,12.792 20.014,17.042 15.892,17.042 15.892,20.907 
		20.014,20.907 20.014,24.899 23.878,24.899 23.878,20.907 28,20.907 	"/>
	<path fill="#556080" d="M23.979,26.409h-3.864c-0.896,0-1.623-0.727-1.623-1.623v-2.369h-2.499c-0.896,0-1.624-0.728-1.624-1.623
		v-3.301C9.925,17.995,6.101,22.919,4.081,30H26.16c-0.388-1.359-0.843-2.638-1.354-3.822
		C24.563,26.321,24.282,26.409,23.979,26.409z"/>
</g>
</svg>
