<?xml version="1.0" encoding="utf-8"?>
<!-- Generator: Adobe Illustrator 16.0.0, SVG Export Plug-In . SVG Version: 6.00 Build 0)  -->
<!DOCTYPE svg PUBLIC "-//W3C//DTD SVG 1.1//EN" "http://www.w3.org/Graphics/SVG/1.1/DTD/svg11.dtd">
<svg version="1.1" id="图层_1" xmlns="http://www.w3.org/2000/svg" xmlns:xlink="http://www.w3.org/1999/xlink" x="0px" y="0px"
	 width="32px" height="32px" viewBox="0 0 32 32" enable-background="new 0 0 32 32" xml:space="preserve">
<g>
	<g>
		<path fill="#556080" d="M6.937,6.302H6.934c-0.256,0-0.498,0.1-0.68,0.282C6.069,6.768,5.969,7.013,5.969,7.273v14.554
			c0,0.535,0.436,0.969,0.971,0.971c2.26,0.005,6.045,0.476,8.656,3.208v-15.23c0-0.181-0.046-0.352-0.133-0.492
			C13.319,6.832,9.201,6.308,6.937,6.302L6.937,6.302z M6.937,6.302"/>
		<path fill="#556080" d="M28.94,9.658h-0.704v12.169c0,1.363-1.111,2.473-2.475,2.478c-1.917,0.004-5.076,0.379-7.314,2.497
			c3.871-0.948,7.95-0.332,10.275,0.198c0.291,0.066,0.591-0.002,0.823-0.188c0.233-0.186,0.365-0.461,0.365-0.758V10.629
			C29.911,10.094,29.476,9.658,28.94,9.658L28.94,9.658z M28.94,9.658"/>
		<path fill="#556080" d="M4.461,21.827V9.658H3.758c-0.535,0-0.97,0.436-0.97,0.971v15.425c0,0.297,0.133,0.573,0.364,0.758
			c0.233,0.186,0.533,0.254,0.824,0.188c2.326-0.529,6.405-1.146,10.275-0.198c-2.238-2.118-5.397-2.492-7.313-2.497
			C5.571,24.3,4.461,23.19,4.461,21.827L4.461,21.827z M4.461,21.827"/>
		<g>
			<path fill="#556080" d="M24.041,9.414c-0.631,0.956,0.1,4.2-1.015,4.467c-1.113,0.266-1.932-2.958-2.928-3.523
				c-0.542-0.308-1.847-0.157-2.922,0.044c-0.048,0.114-0.073,0.239-0.073,0.373v15.23c2.61-2.732,6.396-3.203,8.655-3.208
				c0.536-0.003,0.972-0.437,0.972-0.971V8.11C25.666,8.419,24.392,8.883,24.041,9.414z"/>
		</g>
	</g>
	<polygon fill="#B0333E" points="23.27,0 23.524,3.914 26.894,5.922 23.25,7.375 22.382,11.198 19.875,8.183 15.969,8.538 
		18.063,5.222 16.517,1.618 20.319,2.583 	"/>
</g>
</svg>
