<?xml version="1.0" encoding="UTF-8" standalone="no"?>
<!-- Created with Inkscape (http://www.inkscape.org/) -->

<svg
   xmlns:dc="http://purl.org/dc/elements/1.1/"
   xmlns:cc="http://creativecommons.org/ns#"
   xmlns:rdf="http://www.w3.org/1999/02/22-rdf-syntax-ns#"
   xmlns:svg="http://www.w3.org/2000/svg"
   xmlns="http://www.w3.org/2000/svg"
   xmlns:sodipodi="http://sodipodi.sourceforge.net/DTD/sodipodi-0.dtd"
   xmlns:inkscape="http://www.inkscape.org/namespaces/inkscape"
   width="32"
   height="32"
   viewBox="0 0 32 32"
   id="svg2"
   version="1.1"
   inkscape:version="0.91 r13725"
   sodipodi:docname="santakani.svg"
   inkscape:export-filename="/home/sign/git/santakani/resources/assets/img/icon/stroke/workshop.png"
   inkscape:export-xdpi="1440"
   inkscape:export-ydpi="1440">
  <defs
     id="defs4" />
  <sodipodi:namedview
     id="base"
     pagecolor="#ffffff"
     bordercolor="#666666"
     borderopacity="1.0"
     inkscape:pageopacity="0.0"
     inkscape:pageshadow="2"
     inkscape:zoom="16"
     inkscape:cx="-8.1619114"
     inkscape:cy="16.731243"
     inkscape:document-units="px"
     inkscape:current-layer="layer1"
     showgrid="true"
     units="px"
     showguides="true"
     inkscape:guide-bbox="true"
     inkscape:object-paths="true"
     inkscape:snap-intersection-paths="true"
     inkscape:object-nodes="true"
     inkscape:snap-smooth-nodes="true"
     inkscape:snap-midpoints="true"
     inkscape:window-width="1920"
     inkscape:window-height="1015"
     inkscape:window-x="0"
     inkscape:window-y="0"
     inkscape:window-maximized="1"
     inkscape:snap-global="true"
     inkscape:snap-bbox="true"
     inkscape:bbox-paths="true"
     inkscape:bbox-nodes="true"
     inkscape:snap-bbox-edge-midpoints="true"
     inkscape:snap-bbox-midpoints="true"
     inkscape:snap-nodes="false">
    <inkscape:grid
       type="xygrid"
       id="grid4136"
       units="px"
       spacingx="0.50000002"
       spacingy="0.50000002"
       empspacing="2"
       dotted="false"
       color="#7dd9d5"
       opacity="0.1254902"
       empcolor="#0dc9c2"
       empopacity="0.42745098" />
    <sodipodi:guide
       position="4.0000002,16.000001"
       orientation="1,0"
       id="guide4138" />
    <sodipodi:guide
       position="16.000001,28.000001"
       orientation="0,1"
       id="guide4140" />
    <sodipodi:guide
       position="16.000001,4.0000002"
       orientation="0,1"
       id="guide4142" />
    <sodipodi:guide
       position="28.000001,16.000001"
       orientation="1,0"
       id="guide4144" />
    <sodipodi:guide
       position="16.000001,16.000001"
       orientation="1,0"
       id="guide4150" />
    <sodipodi:guide
       position="16.000001,16.000001"
       orientation="0,1"
       id="guide4152" />
    <sodipodi:guide
       position="2.0000001,16.000001"
       orientation="1,0"
       id="guide4249"
       inkscape:label=""
       inkscape:color="rgb(255,0,175)" />
    <sodipodi:guide
       position="16.000001,30.000001"
       orientation="0,1"
       id="guide4251"
       inkscape:label=""
       inkscape:color="rgb(255,0,175)" />
    <sodipodi:guide
       position="30.000001,16.000001"
       orientation="1,0"
       id="guide4253"
       inkscape:label=""
       inkscape:color="rgb(255,0,175)" />
    <sodipodi:guide
       position="16.000001,2.0000001"
       orientation="0,1"
       id="guide4255"
       inkscape:label=""
       inkscape:color="rgb(255,0,175)" />
  </sodipodi:namedview>
  <metadata
     id="metadata7">
    <rdf:RDF>
      <cc:Work
         rdf:about="">
        <dc:format>image/svg+xml</dc:format>
        <dc:type
           rdf:resource="http://purl.org/dc/dcmitype/StillImage" />
        <dc:title />
      </cc:Work>
    </rdf:RDF>
  </metadata>
  <g
     inkscape:label="Layer 1"
     inkscape:groupmode="layer"
     id="layer1"
     transform="translate(0,-1020.3622)">
    <path
       style="color:#000000;font-style:normal;font-variant:normal;font-weight:normal;font-stretch:normal;font-size:medium;line-height:normal;font-family:sans-serif;text-indent:0;text-align:start;text-decoration:none;text-decoration-line:none;text-decoration-style:solid;text-decoration-color:#000000;letter-spacing:normal;word-spacing:normal;text-transform:none;direction:ltr;block-progression:tb;writing-mode:lr-tb;baseline-shift:baseline;text-anchor:start;white-space:normal;clip-rule:nonzero;display:inline;overflow:visible;visibility:visible;opacity:1;isolation:auto;mix-blend-mode:normal;color-interpolation:sRGB;color-interpolation-filters:linearRGB;solid-color:#000000;solid-opacity:1;fill:#4d4d4d;fill-opacity:1;fill-rule:nonzero;stroke:none;stroke-width:0.99999994;stroke-linecap:round;stroke-linejoin:miter;stroke-miterlimit:4;stroke-dasharray:none;stroke-dashoffset:0;stroke-opacity:1;color-rendering:auto;image-rendering:auto;shape-rendering:auto;text-rendering:auto;enable-background:accumulate"
       d="M 19.927734 4.0019531 C 19.632949 4.0114906 19.345367 4.0611344 19.072266 4.1464844 C 17.979859 4.4874844 17.101403 5.3893531 16.880859 6.5644531 C 16.611409 7.9984531 17.264964 9.8277125 17.923828 11.382812 C 18.558372 12.880613 19.198253 13.996384 19.248047 14.083984 A 0.50004997 0.50004997 0 0 0 19.556641 14.412109 A 0.50004997 0.50004997 0 0 0 19.59375 14.425781 A 0.50004997 0.50004997 0 0 0 19.603516 14.425781 A 0.50004997 0.50004997 0 0 0 19.642578 14.435547 A 0.50004997 0.50004997 0 0 0 19.652344 14.435547 A 0.50004997 0.50004997 0 0 0 19.691406 14.435547 A 0.50004997 0.50004997 0 0 0 19.742188 14.435547 A 0.50004997 0.50004997 0 0 0 19.751953 14.435547 A 0.50004997 0.50004997 0 0 0 19.791016 14.435547 A 0.50004997 0.50004997 0 0 0 20.197266 14.128906 C 20.281826 14.025306 21.424699 12.639066 22.351562 10.822266 C 22.831917 9.8806656 23.240778 8.85105 23.365234 7.84375 C 23.489691 6.83655 23.304764 5.8042 22.542969 5.0625 C 22.017715 4.5511 21.423634 4.2349437 20.824219 4.0898438 L 20.824219 4.0957031 C 20.524511 4.0232031 20.22252 3.9924156 19.927734 4.0019531 z M 12.072266 4.0039062 C 11.77748 3.9943688 11.475489 4.0233031 11.175781 4.0957031 C 10.576366 4.2408031 9.9822849 4.5569594 9.4570312 5.0683594 C 8.6952392 5.8100594 8.510309 6.8424094 8.6347656 7.8496094 C 8.7592222 8.8569094 9.1680832 9.886525 9.6484375 10.828125 C 10.572629 12.639625 11.706058 14.0137 11.796875 14.125 C 11.797075 14.1253 11.800581 14.134766 11.800781 14.134766 A 0.50004997 0.50004997 0 0 0 12.125 14.425781 A 0.50004997 0.50004997 0 0 0 12.222656 14.443359 A 0.50004997 0.50004997 0 0 0 12.261719 14.443359 A 0.50004997 0.50004997 0 0 0 12.273438 14.443359 A 0.50004997 0.50004997 0 0 0 12.285156 14.443359 A 0.50004997 0.50004997 0 0 0 12.322266 14.443359 A 0.50004997 0.50004997 0 0 0 12.330078 14.443359 A 0.50004997 0.50004997 0 0 0 12.751953 14.087891 A 0.50004997 0.50004997 0 0 0 12.753906 14.078125 C 12.806176 13.986125 13.442919 12.877512 14.076172 11.382812 C 14.735036 9.8277125 15.388591 7.9984531 15.119141 6.5644531 C 14.898597 5.3893531 14.020141 4.4874844 12.927734 4.1464844 C 12.654633 4.0612344 12.367052 4.0134437 12.072266 4.0039062 z M 12.037109 4.9960938 C 12.241102 5.0051438 12.438923 5.0420625 12.628906 5.1015625 C 13.388841 5.3387625 13.98823 5.9589 14.136719 6.75 C 14.312648 7.6864 13.786948 9.4989875 13.154297 10.992188 C 12.699303 12.066188 12.440903 12.498594 12.205078 12.933594 C 11.852831 12.479394 11.246995 11.760647 10.539062 10.373047 C 10.089749 9.4922469 9.7281088 8.5472156 9.6269531 7.7285156 C 9.5257974 6.9099156 9.6603381 6.2661031 10.15625 5.7832031 C 10.563107 5.3871031 10.99042 5.1579406 11.412109 5.0566406 C 11.622954 5.0059406 11.833117 4.9870437 12.037109 4.9960938 z M 19.962891 4.9960938 C 20.166883 4.9870062 20.377046 5.0059906 20.587891 5.0566406 C 21.00958 5.1579406 21.436893 5.3871031 21.84375 5.7832031 C 22.339662 6.2661031 22.474203 6.9099156 22.373047 7.7285156 C 22.271891 8.5472156 21.910251 9.4922469 21.460938 10.373047 C 20.753006 11.760647 20.147169 12.479394 19.794922 12.933594 C 19.559097 12.498594 19.300697 12.066187 18.845703 10.992188 C 18.213052 9.4989875 17.687352 7.6864 17.863281 6.75 C 18.01177 5.9589 18.611159 5.3387625 19.371094 5.1015625 C 19.561077 5.0422625 19.758899 5.0051813 19.962891 4.9960938 z M 16 15 C 12.415958 15 9.5 17.917853 9.5 21.501953 C 9.5 25.085953 12.415958 28.001953 16 28.001953 C 19.584042 28.001953 22.5 25.085953 22.5 21.501953 C 22.5 17.917853 19.584042 15 16 15 z M 16 16 C 19.043602 16 21.5 18.458353 21.5 21.501953 C 21.5 24.545553 19.043602 27.001953 16 27.001953 C 12.956398 27.001953 10.5 24.545553 10.5 21.501953 C 10.5 18.458353 12.956398 16 16 16 z M 13.5 19.5 A 1 0.99999571 0 0 0 12.5 20.5 A 1 0.99999571 0 0 0 13.5 21.5 A 1 0.99999571 0 0 0 14.5 20.5 A 1 0.99999571 0 0 0 13.5 19.5 z M 18.5 19.5 A 1 0.99999571 0 0 0 17.5 20.5 A 1 0.99999571 0 0 0 18.5 21.5 A 1 0.99999571 0 0 0 19.5 20.5 A 1 0.99999571 0 0 0 18.5 19.5 z "
       transform="translate(0,1020.3622)"
       id="path38" />
  </g>
</svg>
