<?xml version="1.0" encoding="UTF-8" standalone="no"?>
<!-- Created with Inkscape (http://www.inkscape.org/) -->

<svg
   xmlns:dc="http://purl.org/dc/elements/1.1/"
   xmlns:cc="http://creativecommons.org/ns#"
   xmlns:rdf="http://www.w3.org/1999/02/22-rdf-syntax-ns#"
   xmlns:svg="http://www.w3.org/2000/svg"
   xmlns="http://www.w3.org/2000/svg"
   xmlns:sodipodi="http://sodipodi.sourceforge.net/DTD/sodipodi-0.dtd"
   xmlns:inkscape="http://www.inkscape.org/namespaces/inkscape"
   width="32"
   height="32"
   viewBox="0 0 32 32"
   id="svg2"
   version="1.1"
   inkscape:version="0.91 r13725"
   sodipodi:docname="story.svg">
  <defs
     id="defs4" />
  <sodipodi:namedview
     id="base"
     pagecolor="#ffffff"
     bordercolor="#666666"
     borderopacity="1.0"
     inkscape:pageopacity="0.0"
     inkscape:pageshadow="2"
     inkscape:zoom="24.249999"
     inkscape:cx="14.772226"
     inkscape:cy="17.347468"
     inkscape:document-units="px"
     inkscape:current-layer="layer1"
     showgrid="true"
     units="px"
     showguides="true"
     inkscape:guide-bbox="true"
     inkscape:object-paths="true"
     inkscape:snap-intersection-paths="true"
     inkscape:object-nodes="true"
     inkscape:snap-smooth-nodes="true"
     inkscape:snap-midpoints="true"
     inkscape:window-width="1920"
     inkscape:window-height="1015"
     inkscape:window-x="0"
     inkscape:window-y="0"
     inkscape:window-maximized="1">
    <inkscape:grid
       type="xygrid"
       id="grid4136"
       units="px"
       spacingx="0.50000002"
       spacingy="0.50000002"
       empspacing="2"
       dotted="false"
       color="#7dd9d5"
       opacity="0.1254902"
       empcolor="#0dc9c2"
       empopacity="0.42745098" />
    <sodipodi:guide
       position="4.0000002,16.000001"
       orientation="1,0"
       id="guide4138" />
    <sodipodi:guide
       position="16.000001,28.000001"
       orientation="0,1"
       id="guide4140" />
    <sodipodi:guide
       position="16.000001,4.0000002"
       orientation="0,1"
       id="guide4142" />
    <sodipodi:guide
       position="28.000001,16.000001"
       orientation="1,0"
       id="guide4144" />
    <sodipodi:guide
       position="16.000001,16.000001"
       orientation="1,0"
       id="guide4150" />
    <sodipodi:guide
       position="16.000001,16.000001"
       orientation="0,1"
       id="guide4152" />
    <sodipodi:guide
       position="2.0000001,16.000001"
       orientation="1,0"
       id="guide4249"
       inkscape:label=""
       inkscape:color="rgb(255,0,175)" />
    <sodipodi:guide
       position="16.000001,30.000001"
       orientation="0,1"
       id="guide4251"
       inkscape:label=""
       inkscape:color="rgb(255,0,175)" />
    <sodipodi:guide
       position="16.000001,2.0000001"
       orientation="0,1"
       id="guide4255"
       inkscape:label=""
       inkscape:color="rgb(255,0,175)" />
  </sodipodi:namedview>
  <metadata
     id="metadata7">
    <rdf:RDF>
      <cc:Work
         rdf:about="">
        <dc:format>image/svg+xml</dc:format>
        <dc:type
           rdf:resource="http://purl.org/dc/dcmitype/StillImage" />
        <dc:title />
      </cc:Work>
    </rdf:RDF>
  </metadata>
  <g
     inkscape:label="Layer 1"
     inkscape:groupmode="layer"
     id="layer1"
     transform="translate(0,-1020.3622)">
    <path
       style="color:#000000;font-style:normal;font-variant:normal;font-weight:normal;font-stretch:normal;font-size:medium;line-height:normal;font-family:sans-serif;text-indent:0;text-align:start;text-decoration:none;text-decoration-line:none;text-decoration-style:solid;text-decoration-color:#000000;letter-spacing:normal;word-spacing:normal;text-transform:none;direction:ltr;block-progression:tb;writing-mode:lr-tb;baseline-shift:baseline;text-anchor:start;white-space:normal;clip-rule:nonzero;display:inline;overflow:visible;visibility:visible;opacity:1;isolation:auto;mix-blend-mode:normal;color-interpolation:sRGB;color-interpolation-filters:linearRGB;solid-color:#000000;solid-opacity:1;fill:#666666;fill-opacity:1;fill-rule:nonzero;stroke:none;stroke-width:0.99999988;stroke-linecap:round;stroke-linejoin:round;stroke-miterlimit:4;stroke-dasharray:none;stroke-dashoffset:0;stroke-opacity:1;color-rendering:auto;image-rendering:auto;shape-rendering:auto;text-rendering:auto;enable-background:accumulate"
       d="M 6.5 4 C 6.223869 4 6.0000276 4.2239 6 4.5 L 6 27.5 C 6.0000276 27.7761 6.223869 28 6.5 28 L 25.5 28 C 25.776131 28 25.999973 27.7761 26 27.5 L 26 4.5 C 25.999973 4.2239 25.776131 4 25.5 4 L 6.5 4 z M 7 5 L 25 5 L 25 27 L 7 27 L 7 5 z M 8.5 6 A 0.50004997 0.50004997 0 0 0 8 6.5 L 8 13.5 A 0.50004997 0.50004997 0 0 0 8.5 14 L 23.5 14 A 0.50004997 0.50004997 0 0 0 24 13.5 L 24 6.5 A 0.50004997 0.50004997 0 0 0 23.5 6 L 8.5 6 z M 9 7 L 23 7 L 23 13 L 9 13 L 9 7 z M 8.5 15 A 0.50005 0.50005 0 1 0 8.5 16 L 23.5 16 A 0.50005 0.50005 0 1 0 23.5 15 L 8.5 15 z M 8.5 17 A 0.50005 0.50005 0 1 0 8.5 18 L 23.5 18 A 0.50005 0.50005 0 1 0 23.5 17 L 8.5 17 z M 8.5 19 A 0.50005 0.50005 0 1 0 8.5 20 L 23.5 20 A 0.50005 0.50005 0 1 0 23.5 19 L 8.5 19 z M 8.5 21 A 0.50005 0.50005 0 1 0 8.5 22 L 23.5 22 A 0.50005 0.50005 0 1 0 23.5 21 L 8.5 21 z M 8.5 23 A 0.50005 0.50005 0 1 0 8.5 24 L 23.5 24 A 0.50005 0.50005 0 1 0 23.5 23 L 8.5 23 z M 8.5 25 A 0.50005 0.50005 0 1 0 8.5 26 L 23.5 26 A 0.50005 0.50005 0 1 0 23.5 25 L 8.5 25 z "
       transform="translate(0,1020.3622)"
       id="rect4969" />
  </g>
</svg>
